<svg id="S1.F1.pic1" class="ltx_picture ltx_centering" height="159.82" overflow="visible" version="1.1" viewbox="0 0 588.34 159.82" width="588.34"><g style="--ltx-stroke-color:#000000;--ltx-fill-color:#000000;" fill="#000000" stroke="#000000" transform="translate(0,159.82) matrix(1 0 0 -1 0 0) translate(89.28,0) translate(0,100.27)"><g stroke-linecap="round" stroke-linejoin="round" stroke-width="0.71132pt"><path style="fill:none" d="M -15.75 -15.75 h 31.5 v 31.5 h -31.5 Z" /></g><g style="--ltx-stroke-color:#000000;--ltx-fill-color:#000000;" fill="#000000" stroke="#000000" stroke-linecap="round" stroke-linejoin="round" stroke-width="0.71132pt" transform="matrix(1.0 0.0 0.0 1.0 -5.77 -4.84)"><foreignobject style="--ltx-fo-width:0.83em;--ltx-fo-height:0.75em;--ltx-fo-depth:0.25em;font-size:10pt;" height="13.84" overflow="visible" transform="matrix(1 0 0 -1 0 10.38)" width="11.53"><span class="ltx_foreignobject_container"><span class="ltx_foreignobject_content"><math id="S1.F1.pic1.m1" class="ltx_math_unparsed" alttext="\left|\cdot\right|" display="inline" intent=":literal"><semantics><mrow><mo fence="false">|</mo><mo lspace="0em" rspace="0em">⋅</mo><mo fence="false">|</mo></mrow><annotation encoding="application/x-tex">\left|\cdot\right|</annotation></semantics></math></span></span></foreignobject></g><g style="--ltx-fill-color:#FFD9B3;" fill="#FFD9B3" stroke-linecap="round" stroke-linejoin="round" stroke-width="0.71132pt"><path d="M 75.79 -39.37 h 34.47 v 78.74 h -34.47 Z" /></g><g style="--ltx-stroke-color:#000000;--ltx-fill-color:#000000;" fill="#000000" stroke="#000000" stroke-linecap="round" stroke-linejoin="round" stroke-width="0.71132pt" transform="matrix(1.0 0.0 0.0 1.0 79.72 -4.84)"><foreignobject style="--ltx-fo-width:2.26em;--ltx-fo-height:0.64em;--ltx-fo-depth:0em;font-size:8.5pt;" height="7.56" overflow="visible" transform="matrix(1 0 0 -1 0 7.56)" width="26.6"><span class="ltx_foreignobject_container"><span class="ltx_foreignobject_content"><span id="S1.F1.pic1.1" class="ltx_text" style="font-size:80%;">DNN</span></span></span></foreignobject></g><g style="--ltx-fill-color:#B3FFB3;" fill="#B3FFB3" stroke-linecap="round" stroke-linejoin="round" stroke-width="0.71132pt"><path d="M 170.3 -39.37 h 48.18 v 78.74 h -48.18 Z" /></g><g style="--ltx-stroke-color:#000000;--ltx-fill-color:#000000;" fill="#000000" stroke="#000000" stroke-linecap="round" stroke-linejoin="round" stroke-width="0.71132pt" transform="matrix(1.0 0.0 0.0 1.0 174.24 -4.84)"><foreignobject style="--ltx-fo-width:3.43em;--ltx-fo-height:0.64em;--ltx-fo-depth:0em;font-size:8.5pt;" height="7.56" overflow="visible" transform="matrix(1 0 0 -1 0 7.56)" width="40.31"><span class="ltx_foreignobject_container"><span class="ltx_foreignobject_content"><span id="S1.F1.pic1.2" class="ltx_text" style="font-size:80%;">A-MAP</span></span></span></foreignobject></g><g stroke-linecap="rect" stroke-width="0.85358pt"><path style="fill:none" d="M 293.78 0 C 293.78 4.35 290.25 7.87 285.9 7.87 C 281.55 7.87 278.03 4.35 278.03 0 C 278.03 -4.35 281.55 -7.87 285.9 -7.87 C 290.25 -7.87 293.78 -4.35 293.78 0 Z M 285.9 0 M 280.34 -5.57 L 291.47 5.57 M 280.34 5.57 L 291.47 -5.57" /></g><g stroke-width="0.71132pt"><path d="M 59.55 0 C 59.55 1.09 58.67 1.97 57.58 1.97 C 56.49 1.97 55.61 1.09 55.61 0 C 55.61 -1.09 56.49 -1.97 57.58 -1.97 C 58.67 -1.97 59.55 -1.09 59.55 0 Z M 57.58 0" /></g><g stroke-width="0.71132pt"><path style="fill:none" d="M -75.3 0 L -19.59 0" /><g stroke-dasharray="none" stroke-dashoffset="0.0pt" stroke-linecap="butt" stroke-linejoin="miter" transform="matrix(1.0 0.0 0.0 1.0 -19.59 0)"><path style="stroke:none" d="M -3.35 2.1 L 3.35 0 L -3.35 -2.1 Z" /></g><g style="--ltx-stroke-color:#000000;--ltx-fill-color:#000000;" fill="#000000" stroke="#000000" transform="matrix(1.0 0.0 0.0 1.0 -84.67 5.1)"><g class="ltx_tikzmatrix" transform="matrix(1 0 0 -1 0 21.76)"><g class="ltx_tikzmatrix_row" transform="matrix(1 0 0 1 0 9.61)"><g class="ltx_tikzmatrix_col ltx_nopad_r" transform="matrix(1 0 0 -1 0 0)"><foreignobject style="--ltx-fo-width:5.62em;--ltx-fo-height:0.69em;--ltx-fo-depth:0.19em;font-size:10pt;" height="12.3" overflow="visible" transform="matrix(1 0 0 -1 0 9.61)" width="77.8"><span class="ltx_foreignobject_container"><span class="ltx_foreignobject_content">Noisy speech</span></span></foreignobject></g></g><g class="ltx_tikzmatrix_row" transform="matrix(1 0 0 1 0 21.76)"><g class="ltx_tikzmatrix_col ltx_nopad_r" transform="matrix(1 0 0 -1 32.62 0)"><foreignobject style="--ltx-fo-width:0.91em;--ltx-fo-height:0.68em;--ltx-fo-depth:0em;font-size:10pt;" height="9.46" overflow="visible" transform="matrix(1 0 0 -1 0 9.46)" width="12.55"><span class="ltx_foreignobject_container"><span class="ltx_foreignobject_content"><math id="S1.F1.pic1.m2" class="ltx_Math" alttext="X" display="inline" intent=":literal"><semantics><mi>X</mi><annotation encoding="application/x-tex">X</annotation></semantics></math></span></span></foreignobject></g></g></g></g></g><g stroke-width="0.71132pt"><path style="fill:none" d="M 16.24 0 L 71.94 0" /><g stroke-dasharray="none" stroke-dashoffset="0.0pt" stroke-linecap="butt" stroke-linejoin="miter" transform="matrix(1.0 0.0 0.0 1.0 71.94 0)"><path style="stroke:none" d="M -3.35 2.1 L 3.35 0 L -3.35 -2.1 Z" /></g><g style="--ltx-stroke-color:#000000;--ltx-fill-color:#000000;" fill="#000000" stroke="#000000" transform="matrix(1.0 0.0 0.0 1.0 27.78 8.56)"><foreignobject style="--ltx-fo-width:1.46em;--ltx-fo-height:0.75em;--ltx-fo-depth:0.25em;font-size:10pt;" height="13.84" overflow="visible" transform="matrix(1 0 0 -1 0 10.38)" width="20.24"><span class="ltx_foreignobject_container"><span class="ltx_foreignobject_content"><math id="S1.F1.pic1.m3" class="ltx_Math" alttext="\left|X\right|" display="inline" intent=":literal"><semantics><mrow><mo>|</mo><mi>X</mi><mo>|</mo></mrow><annotation encoding="application/x-tex">\left|X\right|</annotation></semantics></math></span></span></foreignobject></g></g><g stroke-width="0.71132pt"><path style="fill:none" d="M 110.75 19.69 L 166.45 19.69" /><g stroke-dasharray="none" stroke-dashoffset="0.0pt" stroke-linecap="butt" stroke-linejoin="miter" transform="matrix(1.0 0.0 0.0 1.0 166.45 19.69)"><path style="stroke:none" d="M -3.35 2.1 L 3.35 0 L -3.35 -2.1 Z" /></g><g style="--ltx-stroke-color:#000000;--ltx-fill-color:#000000;" fill="#000000" stroke="#000000" transform="matrix(1.0 0.0 0.0 1.0 109.52 24.79)"><foreignobject style="--ltx-fo-width:2.45em;--ltx-fo-height:0.84em;--ltx-fo-depth:0em;font-size:10pt;" height="11.64" overflow="visible" transform="matrix(1 0 0 -1 0 11.64)" width="33.97"><span class="ltx_foreignobject_container"><span class="ltx_foreignobject_content"><math id="S1.F1.pic1.m4" class="ltx_Math" alttext="W^{\text{WF}}" display="inline" intent=":literal"><semantics><msup><mi>W</mi><mtext>WF</mtext></msup><annotation encoding="application/x-tex">W^{\text{WF}}</annotation></semantics></math></span></span></foreignobject></g></g><g stroke-width="0.71132pt"><path d="M 150.12 19.69 C 150.12 20.77 149.24 21.65 148.15 21.65 C 147.07 21.65 146.18 20.77 146.18 19.69 C 146.18 18.6 147.07 17.72 148.15 17.72 C 149.24 17.72 150.12 18.6 150.12 19.69 Z M 148.15 19.69" /></g><g stroke-width="0.71132pt"><path style="fill:none" d="M 110.75 -19.69 L 166.45 -19.69" /><g stroke-dasharray="none" stroke-dashoffset="0.0pt" stroke-linecap="butt" stroke-linejoin="miter" transform="matrix(1.0 0.0 0.0 1.0 166.45 -19.69)"><path style="stroke:none" d="M -3.35 2.1 L 3.35 0 L -3.35 -2.1 Z" /></g><g style="--ltx-stroke-color:#000000;--ltx-fill-color:#000000;" fill="#000000" stroke="#000000" transform="matrix(1.0 0.0 0.0 1.0 116.56 -34.4)"><foreignobject style="--ltx-fo-width:0.58em;--ltx-fo-height:0.69em;--ltx-fo-depth:0em;font-size:10pt;" height="9.61" overflow="visible" transform="matrix(1 0 0 -1 0 9.61)" width="8.07"><span class="ltx_foreignobject_container"><span class="ltx_foreignobject_content"><math id="S1.F1.pic1.m5" class="ltx_Math" alttext="\lambda" display="inline" intent=":literal"><semantics><mi>λ</mi><annotation encoding="application/x-tex">\lambda</annotation></semantics></math></span></span></foreignobject></g></g><g stroke-width="0.71132pt"><path d="M 134.37 -19.69 C 134.37 -18.6 133.49 -17.72 132.41 -17.72 C 131.32 -17.72 130.44 -18.6 130.44 -19.69 C 130.44 -20.77 131.32 -21.65 132.41 -21.65 C 133.49 -21.65 134.37 -20.77 134.37 -19.69 Z M 132.41 -19.69" /></g><g stroke-width="0.71132pt"><path style="fill:none" d="M 218.97 0 L 274.68 0" /><g stroke-dasharray="none" stroke-dashoffset="0.0pt" stroke-linecap="butt" stroke-linejoin="miter" transform="matrix(1.0 0.0 0.0 1.0 274.68 0)"><path style="stroke:none" d="M -3.35 2.1 L 3.35 0 L -3.35 -2.1 Z" /></g><g style="--ltx-stroke-color:#000000;--ltx-fill-color:#000000;" fill="#000000" stroke="#000000" transform="matrix(1.0 0.0 0.0 1.0 221.93 5.1)"><foreignobject style="--ltx-fo-width:3.84em;--ltx-fo-height:0.84em;--ltx-fo-depth:0em;font-size:10pt;" height="11.64" overflow="visible" transform="matrix(1 0 0 -1 0 11.64)" width="53.14"><span class="ltx_foreignobject_container"><span class="ltx_foreignobject_content"><math id="S1.F1.pic1.m6" class="ltx_Math" alttext="W^{\text{A-MAP}}" display="inline" intent=":literal"><semantics><msup><mi>W</mi><mtext>A-MAP</mtext></msup><annotation encoding="application/x-tex">W^{\text{A-MAP}}</annotation></semantics></math></span></span></foreignobject></g></g><g stroke-width="0.71132pt"><path style="fill:none" d="M 293.78 0 L 349.48 0" /><g stroke-dasharray="none" stroke-dashoffset="0.0pt" stroke-linecap="butt" stroke-linejoin="miter" transform="matrix(1.0 0.0 0.0 1.0 349.48 0)"><path style="stroke:none" d="M -3.35 2.1 L 3.35 0 L -3.35 -2.1 Z" /></g><g style="--ltx-stroke-color:#000000;--ltx-fill-color:#000000;" fill="#000000" stroke="#000000" transform="matrix(1.0 0.0 0.0 1.0 315.62 8.56)"><foreignobject style="--ltx-fo-width:1.11em;--ltx-fo-height:0.75em;--ltx-fo-depth:0.25em;font-size:10pt;" height="13.84" overflow="visible" transform="matrix(1 0 0 -1 0 10.38)" width="15.37"><span class="ltx_foreignobject_container"><span class="ltx_foreignobject_content"><math id="S1.F1.pic1.m7" class="ltx_Math" alttext="|\widehat{S}|" display="inline" intent=":literal"><semantics><mrow><mo stretchy="false">|</mo><mover accent="true"><mi>S</mi><mo>^</mo></mover><mo stretchy="false">|</mo></mrow><annotation encoding="application/x-tex">|\widehat{S}|</annotation></semantics></math></span></span></foreignobject></g></g><g stroke-width="0.71132pt"><path d="M 325.27 0 C 325.27 1.09 324.39 1.97 323.3 1.97 C 322.22 1.97 321.34 1.09 321.34 0 C 321.34 -1.09 322.22 -1.97 323.3 -1.97 C 324.39 -1.97 325.27 -1.09 325.27 0 Z M 323.3 0" /></g><g stroke-width="0.71132pt"><path style="fill:none" d="M 57.58 1.97 L 57.58 55.12 C 57.58 57.29 59.34 59.06 61.52 59.06 L 281.97 59.06 C 284.14 59.06 285.9 57.29 285.9 55.12 L 285.9 11.23" /><g stroke-dasharray="none" stroke-dashoffset="0.0pt" stroke-linecap="butt" stroke-linejoin="miter" transform="matrix(0.0 -1.0 1.0 0.0 285.9 11.23)"><path style="stroke:none" d="M -3.35 2.1 L 3.35 0 L -3.35 -2.1 Z" /></g></g><g style="--ltx-fill-color:#B3B3FF;" fill="#B3B3FF" stroke-linecap="round" stroke-linejoin="round" stroke-width="0.71132pt"><path d="M 114.28 -96.15 h 52 v 31.5 h -52 Z" /></g><g style="--ltx-stroke-color:#000000;--ltx-fill-color:#000000;" fill="#000000" stroke="#000000" stroke-linecap="round" stroke-linejoin="round" stroke-width="0.71132pt" transform="matrix(1.0 0.0 0.0 1.0 118.21 -85.24)"><foreignobject style="--ltx-fo-width:3.19em;--ltx-fo-height:0.68em;--ltx-fo-depth:0.36em;font-size:10pt;" height="14.38" overflow="visible" transform="matrix(1 0 0 -1 0 9.46)" width="44.13"><span class="ltx_foreignobject_container"><span class="ltx_foreignobject_content"><math id="S1.F1.pic1.m8" class="ltx_Math" alttext="\mathcal{L}_{p(S|X)}" display="inline" intent=":literal"><semantics><msub><mi class="ltx_font_mathcaligraphic">ℒ</mi><mrow><mi>p</mi><mo>⁡</mo><mrow><mo stretchy="false">(</mo><mi>S</mi><mo lspace="0em" rspace="0em">|</mo><mi>X</mi><mo stretchy="false">)</mo></mrow></mrow></msub><annotation encoding="application/x-tex">\mathcal{L}_{p(S|X)}</annotation></semantics></math></span></span></foreignobject></g><g stroke-width="0.71132pt"><g stroke-dasharray="0.71132pt,2.0pt" stroke-dashoffset="0.0pt"><path style="fill:none" d="M 148.15 17.72 L 148.15 -60.81" /></g><g stroke-dasharray="none" stroke-dashoffset="0.0pt" stroke-linecap="butt" stroke-linejoin="miter" transform="matrix(0.0 -1.0 1.0 0.0 148.15 -60.81)"><path style="stroke:none" d="M -3.35 2.1 L 3.35 0 L -3.35 -2.1 Z" /></g></g><g stroke-width="0.71132pt"><g stroke-dasharray="0.71132pt,2.0pt" stroke-dashoffset="0.0pt"><path style="fill:none" d="M 132.41 -21.65 L 132.41 -60.81" /></g><g stroke-dasharray="none" stroke-dashoffset="0.0pt" stroke-linecap="butt" stroke-linejoin="miter" transform="matrix(0.0 -1.0 1.0 0.0 132.41 -60.81)"><path style="stroke:none" d="M -3.35 2.1 L 3.35 0 L -3.35 -2.1 Z" /></g></g><g style="--ltx-fill-color:#B3B3FF;" fill="#B3B3FF" stroke-linecap="round" stroke-linejoin="round" stroke-width="0.71132pt"><path d="M 296.54 -96.15 h 53.53 v 31.5 h -53.53 Z" /></g><g style="--ltx-stroke-color:#000000;--ltx-fill-color:#000000;" fill="#000000" stroke="#000000" stroke-linecap="round" stroke-linejoin="round" stroke-width="0.71132pt" transform="matrix(1.0 0.0 0.0 1.0 300.48 -85.24)"><foreignobject style="--ltx-fo-width:3.3em;--ltx-fo-height:0.68em;--ltx-fo-depth:0.15em;font-size:10pt;" height="11.53" overflow="visible" transform="matrix(1 0 0 -1 0 9.46)" width="45.65"><span class="ltx_foreignobject_container"><span class="ltx_foreignobject_content"><math id="S1.F1.pic1.m9" class="ltx_Math" alttext="\mathcal{L}_{\text{SI-SDR}}" display="inline" intent=":literal"><semantics><msub><mi class="ltx_font_mathcaligraphic">ℒ</mi><mtext>SI-SDR</mtext></msub><annotation encoding="application/x-tex">\mathcal{L}_{\text{SI-SDR}}</annotation></semantics></math></span></span></foreignobject></g><g stroke-dasharray="0.71132pt,2.0pt" stroke-dashoffset="0.0pt" stroke-linecap="round" stroke-linejoin="round" stroke-width="0.71132pt"><path style="fill:none" d="M 301.06 -44.07 h 44.49 v 21.93 h -44.49 Z" /></g><g style="--ltx-stroke-color:#000000;--ltx-fill-color:#000000;" fill="#000000" stroke="#000000" stroke-dasharray="0.71132pt,2.0pt" stroke-dashoffset="0.0pt" stroke-linecap="round" stroke-linejoin="round" stroke-width="0.71132pt" transform="matrix(1.0 0.0 0.0 1.0 303.03 -37.95)"><foreignobject style="--ltx-fo-width:2.93em;--ltx-fo-height:0.68em;--ltx-fo-depth:0em;font-size:10pt;" height="9.46" overflow="visible" transform="matrix(1 0 0 -1 0 9.46)" width="40.55"><span class="ltx_foreignobject_container"><span class="ltx_foreignobject_content">iSTFT</span></span></foreignobject></g><g stroke-width="0.71132pt"><g stroke-dasharray="0.71132pt,2.0pt" stroke-dashoffset="0.0pt"><path style="fill:none" d="M 323.3 -1.97 L 323.3 -18.3" /></g><g stroke-dasharray="none" stroke-dashoffset="0.0pt" stroke-linecap="butt" stroke-linejoin="miter" transform="matrix(0.0 -1.0 1.0 0.0 323.3 -18.3)"><path style="stroke:none" d="M -3.35 2.1 L 3.35 0 L -3.35 -2.1 Z" /></g></g><g stroke-width="0.71132pt"><g stroke-dasharray="0.71132pt,2.0pt" stroke-dashoffset="0.0pt"><path style="fill:none" d="M 323.3 -44.56 L 323.3 -60.81" /></g><g stroke-dasharray="none" stroke-dashoffset="0.0pt" stroke-linecap="butt" stroke-linejoin="miter" transform="matrix(0.0 -1.0 1.0 0.0 323.3 -60.81)"><path style="stroke:none" d="M -3.35 2.1 L 3.35 0 L -3.35 -2.1 Z" /></g></g><g style="--ltx-fill-color:#FFD9B3;" fill="#FFD9B3" stroke-linecap="round" stroke-linejoin="round" stroke-width="0.71132pt"><path d="M 392.2 -38.21 h 19.69 v 17.99 h -19.69 Z" /></g><g stroke-width="0.4pt"><g style="--ltx-stroke-color:#000000;--ltx-fill-color:#000000;" fill="#000000" stroke="#000000" transform="matrix(1.0 0.0 0.0 1.0 417.27 -33.54)"><foreignobject style="--ltx-fo-width:4.22em;--ltx-fo-height:0.68em;--ltx-fo-depth:0em;font-size:9.25pt;" height="8.65" overflow="visible" transform="matrix(1 0 0 -1 0 8.65)" width="54.08"><span class="ltx_foreignobject_container"><span class="ltx_foreignobject_content"><span id="S1.F1.pic1.3" class="ltx_text" style="font-size:90%;">Trainable</span></span></span></foreignobject></g><g style="--ltx-fill-color:#B3FFB3;" fill="#B3FFB3" stroke-linecap="round" stroke-linejoin="round" stroke-width="0.71132pt"><path d="M 392.2 -69 h 19.69 v 17.99 h -19.69 Z" /></g><g style="--ltx-stroke-color:#000000;--ltx-fill-color:#000000;" fill="#000000" stroke="#000000" transform="matrix(1.0 0.0 0.0 1.0 417.27 -64.33)"><foreignobject style="--ltx-fo-width:6.03em;--ltx-fo-height:0.68em;--ltx-fo-depth:0em;font-size:9.25pt;" height="8.65" overflow="visible" transform="matrix(1 0 0 -1 0 8.65)" width="77.18"><span class="ltx_foreignobject_container"><span class="ltx_foreignobject_content"><span id="S1.F1.pic1.4" class="ltx_text" style="font-size:90%;">Non-trainable</span></span></span></foreignobject></g><g style="--ltx-fill-color:#B3B3FF;" fill="#B3B3FF" stroke-linecap="round" stroke-linejoin="round" stroke-width="0.71132pt"><path d="M 392.2 -99.78 h 19.69 v 17.99 h -19.69 Z" /></g><g style="--ltx-stroke-color:#000000;--ltx-fill-color:#000000;" fill="#000000" stroke="#000000" transform="matrix(1.0 0.0 0.0 1.0 417.27 -95.04)"><foreignobject style="--ltx-fo-width:4.7em;--ltx-fo-height:0.66em;--ltx-fo-depth:0em;font-size:9.25pt;" height="8.51" overflow="visible" transform="matrix(1 0 0 -1 0 8.51)" width="60.15"><span class="ltx_foreignobject_container"><span class="ltx_foreignobject_content"><span id="S1.F1.pic1.5" class="ltx_text" style="font-size:90%;">Loss terms</span></span></span></foreignobject></g></g></g></svg>