<svg id="S5.F6.pic1" class="ltx_picture ltx_centering" height="158.45" overflow="visible" version="1.1" viewbox="0 0 229.48 158.45" width="229.48"><g style="--ltx-stroke-color:#000000;--ltx-fill-color:#000000;" fill="#000000" stroke="#000000" stroke-width="0.4pt" transform="translate(0,158.45) matrix(1 0 0 -1 0 0) translate(52.58,0) translate(0,41.86)"><g transform="matrix(1.0 0.0 0.0 1.0 -52.58 -41.86)"><g class="ltx_nestedsvg" transform="matrix(1 0 0 1 0 0) translate(52.58,0) translate(0,41.86)"><g style="--ltx-stroke-color:#B0B0B0;--ltx-fill-color:#B0B0B0;--ltx-fg-color:#B0B0B0;" color="#B0B0B0" fill="#B0B0B0" stroke="#B0B0B0" stroke-width="0.4pt"><path style="fill:none" d="M 0 0 L 0 107.52 M 14.95 0 L 14.95 107.52 M 29.91 0 L 29.91 107.52 M 44.86 0 L 44.86 107.52 M 59.82 0 L 59.82 107.52 M 74.77 0 L 74.77 107.52 M 89.73 0 L 89.73 107.52 M 104.68 0 L 104.68 107.52 M 119.64 0 L 119.64 107.52 M 134.59 0 L 134.59 107.52" /></g><g style="--ltx-stroke-color:#B0B0B0;--ltx-fill-color:#B0B0B0;--ltx-fg-color:#B0B0B0;" color="#B0B0B0" fill="#B0B0B0" stroke="#B0B0B0" stroke-width="0.4pt"><path style="fill:none" d="M 0 0 L 134.59 0 M 0 21.5 L 134.59 21.5 M 0 43.01 L 134.59 43.01 M 0 64.51 L 134.59 64.51 M 0 86.02 L 134.59 86.02 M 0 107.52 L 134.59 107.52" /></g><g style="--ltx-stroke-color:#000000;--ltx-fill-color:#000000;--ltx-fg-color:#808080;" color="#808080" fill="#000000" stroke="#000000" stroke-width="0.2pt"><path style="fill:none" d="M 0 -5.91 L 0 0 M 14.95 -5.91 L 14.95 0 M 29.91 -5.91 L 29.91 0 M 44.86 -5.91 L 44.86 0 M 59.82 -5.91 L 59.82 0 M 74.77 -5.91 L 74.77 0 M 89.73 -5.91 L 89.73 0 M 104.68 -5.91 L 104.68 0 M 119.64 -5.91 L 119.64 0 M 134.59 -5.91 L 134.59 0" /></g><g style="--ltx-stroke-color:#000000;--ltx-fill-color:#000000;--ltx-fg-color:#808080;" color="#808080" fill="#000000" stroke="#000000" stroke-width="0.2pt"><path style="fill:none" d="M -5.91 0 L 0 0 M -5.91 21.5 L 0 21.5 M -5.91 43.01 L 0 43.01 M -5.91 64.51 L 0 64.51 M -5.91 86.02 L 0 86.02 M -5.91 107.52 L 0 107.52" /></g><g style="--ltx-stroke-color:#000000;--ltx-fill-color:#000000;" fill="#000000" stroke="#000000" stroke-width="0.4pt"><path style="fill:none" d="M 0 0 L 0 107.52 L 134.59 107.52 L 134.59 0 L 0 0 Z" /><g style="--ltx-stroke-color:#000000;--ltx-fill-color:#000000;" fill="#000000" stroke="#000000" transform="matrix(1.0 0.0 0.0 1.0 -3.46 -19.71)"><foreignobject style="--ltx-fo-width:0.5em;--ltx-fo-height:0.64em;--ltx-fo-depth:0em;font-size:10pt;" height="8.92" overflow="visible" transform="matrix(1 0 0 -1 0 8.92)" width="6.92"><span class="ltx_foreignobject_container"><span class="ltx_foreignobject_content"><span id="S5.F6.pic1.1" class="ltx_text">0</span></span></span></foreignobject></g><g style="--ltx-stroke-color:#000000;--ltx-fill-color:#000000;" fill="#000000" stroke="#000000" transform="matrix(1.0 0.0 0.0 1.0 9.57 -19.71)"><foreignobject style="--ltx-fo-width:0.78em;--ltx-fo-height:0.64em;--ltx-fo-depth:0em;font-size:10pt;" height="8.92" overflow="visible" transform="matrix(1 0 0 -1 0 8.92)" width="10.76"><span class="ltx_foreignobject_container"><span class="ltx_foreignobject_content"><span id="S5.F6.pic1.2" class="ltx_text">.1</span></span></span></foreignobject></g><g style="--ltx-stroke-color:#000000;--ltx-fill-color:#000000;" fill="#000000" stroke="#000000" transform="matrix(1.0 0.0 0.0 1.0 24.53 -19.71)"><foreignobject style="--ltx-fo-width:0.78em;--ltx-fo-height:0.64em;--ltx-fo-depth:0em;font-size:10pt;" height="8.92" overflow="visible" transform="matrix(1 0 0 -1 0 8.92)" width="10.76"><span class="ltx_foreignobject_container"><span class="ltx_foreignobject_content"><span id="S5.F6.pic1.3" class="ltx_text">.2</span></span></span></foreignobject></g><g style="--ltx-stroke-color:#000000;--ltx-fill-color:#000000;" fill="#000000" stroke="#000000" transform="matrix(1.0 0.0 0.0 1.0 39.48 -19.71)"><foreignobject style="--ltx-fo-width:0.78em;--ltx-fo-height:0.64em;--ltx-fo-depth:0em;font-size:10pt;" height="8.92" overflow="visible" transform="matrix(1 0 0 -1 0 8.92)" width="10.76"><span class="ltx_foreignobject_container"><span class="ltx_foreignobject_content"><span id="S5.F6.pic1.4" class="ltx_text">.3</span></span></span></foreignobject></g><g style="--ltx-stroke-color:#000000;--ltx-fill-color:#000000;" fill="#000000" stroke="#000000" transform="matrix(1.0 0.0 0.0 1.0 54.44 -19.71)"><foreignobject style="--ltx-fo-width:0.78em;--ltx-fo-height:0.64em;--ltx-fo-depth:0em;font-size:10pt;" height="8.92" overflow="visible" transform="matrix(1 0 0 -1 0 8.92)" width="10.76"><span class="ltx_foreignobject_container"><span class="ltx_foreignobject_content"><span id="S5.F6.pic1.5" class="ltx_text">.4</span></span></span></foreignobject></g><g style="--ltx-stroke-color:#000000;--ltx-fill-color:#000000;" fill="#000000" stroke="#000000" transform="matrix(1.0 0.0 0.0 1.0 69.39 -19.71)"><foreignobject style="--ltx-fo-width:0.78em;--ltx-fo-height:0.64em;--ltx-fo-depth:0em;font-size:10pt;" height="8.92" overflow="visible" transform="matrix(1 0 0 -1 0 8.92)" width="10.76"><span class="ltx_foreignobject_container"><span class="ltx_foreignobject_content"><span id="S5.F6.pic1.6" class="ltx_text">.5</span></span></span></foreignobject></g><g style="--ltx-stroke-color:#000000;--ltx-fill-color:#000000;" fill="#000000" stroke="#000000" transform="matrix(1.0 0.0 0.0 1.0 84.35 -19.71)"><foreignobject style="--ltx-fo-width:0.78em;--ltx-fo-height:0.64em;--ltx-fo-depth:0em;font-size:10pt;" height="8.92" overflow="visible" transform="matrix(1 0 0 -1 0 8.92)" width="10.76"><span class="ltx_foreignobject_container"><span class="ltx_foreignobject_content"><span id="S5.F6.pic1.7" class="ltx_text">.6</span></span></span></foreignobject></g><g style="--ltx-stroke-color:#000000;--ltx-fill-color:#000000;" fill="#000000" stroke="#000000" transform="matrix(1.0 0.0 0.0 1.0 99.3 -19.71)"><foreignobject style="--ltx-fo-width:0.78em;--ltx-fo-height:0.64em;--ltx-fo-depth:0em;font-size:10pt;" height="8.92" overflow="visible" transform="matrix(1 0 0 -1 0 8.92)" width="10.76"><span class="ltx_foreignobject_container"><span class="ltx_foreignobject_content"><span id="S5.F6.pic1.8" class="ltx_text">.7</span></span></span></foreignobject></g><g style="--ltx-stroke-color:#000000;--ltx-fill-color:#000000;" fill="#000000" stroke="#000000" transform="matrix(1.0 0.0 0.0 1.0 114.26 -19.71)"><foreignobject style="--ltx-fo-width:0.78em;--ltx-fo-height:0.64em;--ltx-fo-depth:0em;font-size:10pt;" height="8.92" overflow="visible" transform="matrix(1 0 0 -1 0 8.92)" width="10.76"><span class="ltx_foreignobject_container"><span class="ltx_foreignobject_content"><span id="S5.F6.pic1.9" class="ltx_text">.8</span></span></span></foreignobject></g><g style="--ltx-stroke-color:#000000;--ltx-fill-color:#000000;" fill="#000000" stroke="#000000" transform="matrix(1.0 0.0 0.0 1.0 129.21 -19.71)"><foreignobject style="--ltx-fo-width:0.78em;--ltx-fo-height:0.64em;--ltx-fo-depth:0em;font-size:10pt;" height="8.92" overflow="visible" transform="matrix(1 0 0 -1 0 8.92)" width="10.76"><span class="ltx_foreignobject_container"><span class="ltx_foreignobject_content"><span id="S5.F6.pic1.10" class="ltx_text">.9</span></span></span></foreignobject></g><g style="--ltx-stroke-color:#000000;--ltx-fill-color:#000000;" fill="#000000" stroke="#000000" transform="matrix(1.0 0.0 0.0 1.0 -17.71 -4.46)"><foreignobject style="--ltx-fo-width:0.5em;--ltx-fo-height:0.64em;--ltx-fo-depth:0em;font-size:10pt;" height="8.92" overflow="visible" transform="matrix(1 0 0 -1 0 8.92)" width="6.92"><span class="ltx_foreignobject_container"><span class="ltx_foreignobject_content"><math id="S5.F6.pic1.m1" class="ltx_Math" alttext="0" display="inline" intent=":literal"><semantics><mn>0</mn><annotation encoding="application/x-tex">0</annotation></semantics></math></span></span></foreignobject></g><g style="--ltx-stroke-color:#000000;--ltx-fill-color:#000000;" fill="#000000" stroke="#000000" transform="matrix(1.0 0.0 0.0 1.0 -24.63 17.05)"><foreignobject style="--ltx-fo-width:1em;--ltx-fo-height:0.64em;--ltx-fo-depth:0em;font-size:10pt;" height="8.92" overflow="visible" transform="matrix(1 0 0 -1 0 8.92)" width="13.84"><span class="ltx_foreignobject_container"><span class="ltx_foreignobject_content"><math id="S5.F6.pic1.m2" class="ltx_Math" alttext="10" display="inline" intent=":literal"><semantics><mn>10</mn><annotation encoding="application/x-tex">10</annotation></semantics></math></span></span></foreignobject></g><g style="--ltx-stroke-color:#000000;--ltx-fill-color:#000000;" fill="#000000" stroke="#000000" transform="matrix(1.0 0.0 0.0 1.0 -24.63 38.55)"><foreignobject style="--ltx-fo-width:1em;--ltx-fo-height:0.64em;--ltx-fo-depth:0em;font-size:10pt;" height="8.92" overflow="visible" transform="matrix(1 0 0 -1 0 8.92)" width="13.84"><span class="ltx_foreignobject_container"><span class="ltx_foreignobject_content"><math id="S5.F6.pic1.m3" class="ltx_Math" alttext="20" display="inline" intent=":literal"><semantics><mn>20</mn><annotation encoding="application/x-tex">20</annotation></semantics></math></span></span></foreignobject></g><g style="--ltx-stroke-color:#000000;--ltx-fill-color:#000000;" fill="#000000" stroke="#000000" transform="matrix(1.0 0.0 0.0 1.0 -24.63 60.05)"><foreignobject style="--ltx-fo-width:1em;--ltx-fo-height:0.64em;--ltx-fo-depth:0em;font-size:10pt;" height="8.92" overflow="visible" transform="matrix(1 0 0 -1 0 8.92)" width="13.84"><span class="ltx_foreignobject_container"><span class="ltx_foreignobject_content"><math id="S5.F6.pic1.m4" class="ltx_Math" alttext="30" display="inline" intent=":literal"><semantics><mn>30</mn><annotation encoding="application/x-tex">30</annotation></semantics></math></span></span></foreignobject></g><g style="--ltx-stroke-color:#000000;--ltx-fill-color:#000000;" fill="#000000" stroke="#000000" transform="matrix(1.0 0.0 0.0 1.0 -24.63 81.56)"><foreignobject style="--ltx-fo-width:1em;--ltx-fo-height:0.64em;--ltx-fo-depth:0em;font-size:10pt;" height="8.92" overflow="visible" transform="matrix(1 0 0 -1 0 8.92)" width="13.84"><span class="ltx_foreignobject_container"><span class="ltx_foreignobject_content"><math id="S5.F6.pic1.m5" class="ltx_Math" alttext="40" display="inline" intent=":literal"><semantics><mn>40</mn><annotation encoding="application/x-tex">40</annotation></semantics></math></span></span></foreignobject></g><g style="--ltx-stroke-color:#000000;--ltx-fill-color:#000000;" fill="#000000" stroke="#000000" transform="matrix(1.0 0.0 0.0 1.0 -24.63 103.06)"><foreignobject style="--ltx-fo-width:1em;--ltx-fo-height:0.64em;--ltx-fo-depth:0em;font-size:10pt;" height="8.92" overflow="visible" transform="matrix(1 0 0 -1 0 8.92)" width="13.84"><span class="ltx_foreignobject_container"><span class="ltx_foreignobject_content"><math id="S5.F6.pic1.m6" class="ltx_Math" alttext="50" display="inline" intent=":literal"><semantics><mn>50</mn><annotation encoding="application/x-tex">50</annotation></semantics></math></span></span></foreignobject></g><clippath id="pgfcp19"><path d="M 0 0 L 134.59 0 L 134.59 107.52 L 0 107.52 Z" /></clippath><g clip-path="url(#pgfcp19)"><g stroke-dasharray="0.8pt,2.0pt" stroke-dashoffset="0.0pt" stroke-width="0.8pt"><path style="fill:none" d="M 134.59 65.37 L 119.64 39.14 L 104.68 25.37 L 89.73 18.49 L 74.77 14.41 L 59.82 13.33 L 44.86 16.13 L 29.91 21.93 L 14.95 39.14 L 0 84.73" /></g><g></g><g stroke-dasharray="3.0pt,3.0pt" stroke-dashoffset="0.0pt" stroke-width="0.8pt"><path style="fill:none" d="M 134.59 180.64 L 119.64 150.53 L 104.68 118.27 L 89.73 86.02 L 74.77 61.07 L 59.82 44.08 L 44.86 32.04 L 29.91 32.69 L 14.95 42.58 L 0 81.5" /></g><g></g><g stroke-dasharray="3.0pt,3.0pt" stroke-dashoffset="0.0pt" stroke-width="0.8pt"><path style="fill:none" d="M 134.59 13.33 L 119.64 13.33 L 104.68 13.33 L 89.73 13.33 L 74.77 13.33 L 59.82 13.33 L 44.86 13.33 L 29.91 13.33 L 14.95 13.33 L 0 13.33" /></g><g></g></g><g style="--ltx-stroke-color:#000000;--ltx-fill-color:#000000;" fill="#000000" stroke="#000000" transform="matrix(1.0 0.0 0.0 1.0 55.3 -35.17)"><foreignobject style="--ltx-fo-width:1.73em;--ltx-fo-height:0.43em;--ltx-fo-depth:0.15em;font-size:10pt;" height="8.03" overflow="visible" transform="matrix(1 0 0 -1 0 5.96)" width="23.99"><span class="ltx_foreignobject_container"><span class="ltx_foreignobject_content"><math id="S5.F6.pic1.m7" class="ltx_Math" alttext="v_{thr}" display="inline" intent=":literal"><semantics><msub><mi>v</mi><mrow><mi>t</mi><mo lspace="0em" rspace="0em">​</mo><mi>h</mi><mo lspace="0em" rspace="0em">​</mo><mi>r</mi></mrow></msub><annotation encoding="application/x-tex">v_{thr}</annotation></semantics></math></span></span></foreignobject></g><g style="--ltx-stroke-color:#000000;--ltx-fill-color:#000000;" fill="#000000" stroke="#000000" transform="matrix(0.0 1.0 -1.0 0.0 -37.59 28.19)"><foreignobject style="--ltx-fo-width:3.24em;--ltx-fo-height:0.75em;--ltx-fo-depth:0.25em;font-size:10pt;" height="13.84" overflow="visible" transform="matrix(1 0 0 -1 0 10.38)" width="44.78"><span class="ltx_foreignobject_container"><span class="ltx_foreignobject_content"><span id="S5.F6.pic1.11" class="ltx_text">MAE [<sup id="S5.F6.pic1.11.1" class="ltx_sup">∘</sup>]</span></span></span></foreignobject></g><g style="--ltx-stroke-color:#CCCCCC;--ltx-fill-color:#FFFFFF;" fill="#FFFFFF" fill-opacity="0.8" stroke="#CCCCCC" stroke-opacity="0.5"><path d="M 48.93 65.13 h 82.69 v 39.96 h -82.69 Z" /></g><g style="--ltx-stroke-color:#CCCCCC;--ltx-fill-color:#FFFFFF;" fill="#FFFFFF" fill-opacity="0.8" stroke="#CCCCCC" stroke-opacity="0.5" transform="matrix(1.0 0.0 0.0 1.0 53.08 76.58)"><g class="ltx_tikzmatrix" transform="matrix(1 0 0 -1 0 34.43)"><g class="ltx_tikzmatrix_row" transform="matrix(1 0 0 1 0 8.53)"><g style="--ltx-fill-color:#000000;" class="ltx_tikzmatrix_col ltx_nopad_l ltx_nopad_r" fill="#000000" stroke-dasharray="0.8pt,2.0pt" stroke-dashoffset="0.0pt" stroke-width="0.8pt" transform="matrix(1 0 0 -1 0 0) translate(-9.04,0)"><path d="M 14.58 0 C 14.58 1.53 13.34 2.77 11.81 2.77 C 10.28 2.77 9.04 1.53 9.04 0 C 9.04 -1.53 10.28 -2.77 11.81 -2.77 C 13.34 -2.77 14.58 -1.53 14.58 0 Z M 11.81 0" /></g><g style="--ltx-stroke-color:#000000;--ltx-fill-color:#000000;" class="ltx_tikzmatrix_col ltx_nopad_l ltx_nopad_r" fill="#000000" stroke="#000000" transform="matrix(1 0 0 -1 14.58 0) translate(-0.28,0) matrix(1.0 0.0 0.0 1.0 3.04 -3.69)"><foreignobject style="--ltx-fo-width:3.9em;--ltx-fo-height:0.68em;--ltx-fo-depth:0em;font-size:10pt;" height="9.46" overflow="visible" transform="matrix(1 0 0 -1 0 9.46)" width="54"><span class="ltx_foreignobject_container"><span class="ltx_foreignobject_content"><span id="S5.F6.pic1.12" class="ltx_text">SRP-MP</span></span></span></foreignobject></g></g><g class="ltx_tikzmatrix_row" transform="matrix(1 0 0 1 0 25.75)"><g style="--ltx-fill-color:#000000;" class="ltx_tikzmatrix_col ltx_nopad_l ltx_nopad_r" fill="#000000" stroke-dasharray="3.0pt,3.0pt" stroke-dashoffset="0.0pt" stroke-width="0.8pt" transform="matrix(1 0 0 -1 0 0) translate(-9.04,0)"><path d="M 14.58 0 C 14.58 1.53 13.34 2.77 11.81 2.77 C 10.28 2.77 9.04 1.53 9.04 0 C 9.04 -1.53 10.28 -2.77 11.81 -2.77 C 13.34 -2.77 14.58 -1.53 14.58 0 Z M 11.81 0" /></g><g style="--ltx-stroke-color:#000000;--ltx-fill-color:#000000;" class="ltx_tikzmatrix_col ltx_nopad_l ltx_nopad_r" fill="#000000" stroke="#000000" transform="matrix(1 0 0 -1 14.58 0) translate(-0.28,0) matrix(1.0 0.0 0.0 1.0 3.04 -3.84)"><foreignobject style="--ltx-fo-width:2.81em;--ltx-fo-height:0.7em;--ltx-fo-depth:0.15em;font-size:10pt;" height="11.82" overflow="visible" transform="matrix(1 0 0 -1 0 9.75)" width="38.94"><span class="ltx_foreignobject_container"><span class="ltx_foreignobject_content"><math id="S5.F6.pic1.m9" class="ltx_Math" alttext="\text{CNN}^{\tiny{B}}_{\tiny{P}}" display="inline" intent=":literal"><semantics><msubsup><mtext>CNN</mtext><mi mathsize="0.710em">P</mi><mi mathsize="0.710em">B</mi></msubsup><annotation encoding="application/x-tex">\text{CNN}^{\tiny{B}}_{\tiny{P}}</annotation></semantics></math></span></span></foreignobject></g></g></g></g></g></g></g><g transform="matrix(1.0 0.0 0.0 1.0 -0.28 -0.28)"><g class="ltx_nestedsvg" transform="matrix(1 0 0 1 0 0) translate(0.28,0) translate(0,0.28)"><g style="--ltx-stroke-color:#B0B0B0;--ltx-fill-color:#B0B0B0;--ltx-fg-color:#B0B0B0;" color="#B0B0B0" fill="#B0B0B0" stroke="#B0B0B0" stroke-width="0.4pt"><path style="fill:none" d="M 0 13.33 L 134.59 13.33 M 0 32.04 L 134.59 32.04" /></g><g style="--ltx-stroke-color:#000000;--ltx-fill-color:#000000;--ltx-fg-color:#808080;" color="#808080" fill="#000000" stroke="#000000" stroke-width="0.2pt"><path style="fill:none" d="M 140.49 13.33 L 134.59 13.33 M 140.49 32.04 L 134.59 32.04" /></g><g style="--ltx-stroke-color:#000000;--ltx-fill-color:#000000;" fill="#000000" stroke="#000000" stroke-width="0.4pt"><path style="fill:none" d="M 0 0 L 0 107.52 L 134.59 107.52 L 134.59 0 L 0 0 Z" /><g style="--ltx-stroke-color:#000000;--ltx-fill-color:#000000;" fill="#000000" stroke="#000000" transform="matrix(1.0 0.0 0.0 1.0 145.38 8.87)"><foreignobject style="--ltx-fo-width:1.44em;--ltx-fo-height:0.64em;--ltx-fo-depth:0em;font-size:10pt;" height="8.92" overflow="visible" transform="matrix(1 0 0 -1 0 8.92)" width="19.99"><span class="ltx_foreignobject_container"><span class="ltx_foreignobject_content"><math id="S5.F6.pic1.m10" class="ltx_Math" alttext="6.2" display="inline" intent=":literal"><semantics><mn>6.2</mn><annotation encoding="application/x-tex">6.2</annotation></semantics></math></span></span></foreignobject></g><g style="--ltx-stroke-color:#000000;--ltx-fill-color:#000000;" fill="#000000" stroke="#000000" transform="matrix(1.0 0.0 0.0 1.0 145.38 27.58)"><foreignobject style="--ltx-fo-width:1.94em;--ltx-fo-height:0.64em;--ltx-fo-depth:0em;font-size:10pt;" height="8.92" overflow="visible" transform="matrix(1 0 0 -1 0 8.92)" width="26.91"><span class="ltx_foreignobject_container"><span class="ltx_foreignobject_content"><math id="S5.F6.pic1.m11" class="ltx_Math" alttext="14.9" display="inline" intent=":literal"><semantics><mn>14.9</mn><annotation encoding="application/x-tex">14.9</annotation></semantics></math></span></span></foreignobject></g><clippath id="pgfcp20"><path d="M 0 0 L 134.59 0 L 134.59 107.52 L 0 107.52 Z" /></clippath></g></g></g></g></svg>