<svg id="S0.F1.pic1" class="ltx_picture ltx_centering" height="519.84" overflow="visible" version="1.1" viewbox="0 0 676.22 519.84" width="676.22"><g style="--ltx-stroke-color:#000000;--ltx-fill-color:#000000;" fill="#000000" stroke="#000000" transform="translate(0,519.84) matrix(1 0 0 -1 0 0) translate(-0.28,0) translate(0,246.51)"><g stroke-width="0.8pt"><g style="--ltx-stroke-color:#4672C3;--ltx-fill-color:#4672C3;--ltx-fg-color:#4672C3;" color="#4672C3" fill="#4672C3" stroke="#4672C3"><path style="fill:none" d="M 161.42 242.13 L 535.11 242.13" /></g><g style="--ltx-stroke-color:#4672C3;--ltx-fill-color:#4672C3;--ltx-fg-color:#4672C3;" color="#4672C3" fill="#4672C3" stroke="#4672C3" stroke-dasharray="none" stroke-dashoffset="0.0pt" stroke-linecap="round" stroke-linejoin="round" transform="matrix(1.0 0.0 0.0 1.0 535.67 242.13)"><path style="fill:none" d="M -3.54 4.32 C -2.9 1.73 -1.45 0.5 0 0 C -1.45 -0.5 -2.9 -1.73 -3.54 -4.32" /></g><g style="--ltx-stroke-color:#4672C3;--ltx-fill-color:#4672C3;" fill="#4672C3" stroke="#4672C3" transform="matrix(1.0 0.0 0.0 1.0 268.82 227.51)"><foreignobject style="--ltx-fo-width:11.59em;--ltx-fo-height:0.68em;--ltx-fo-depth:0.19em;font-size:10pt;" height="12.15" overflow="visible" transform="matrix(1 0 0 -1 0 9.46)" width="160.38"><span class="ltx_foreignobject_container"><span class="ltx_foreignobject_content"><span id="S0.F1.pic1.1" class="ltx_text" style="--ltx-fg-color:#4672C3;">Generative reverse process</span></span></span></foreignobject></g></g><g stroke-width="0.8pt"><g style="--ltx-stroke-color:#797979;--ltx-fill-color:#797979;--ltx-fg-color:#797979;" color="#797979" fill="#797979" stroke="#797979"><path style="fill:none" d="M 536.22 253.94 L 162.52 253.94" /></g><g style="--ltx-stroke-color:#797979;--ltx-fill-color:#797979;--ltx-fg-color:#797979;" color="#797979" fill="#797979" stroke="#797979" stroke-dasharray="none" stroke-dashoffset="0.0pt" stroke-linecap="round" stroke-linejoin="round" transform="matrix(-1.0 0.0 0.0 -1.0 161.97 253.94)"><path style="fill:none" d="M -3.54 4.32 C -2.9 1.73 -1.45 0.5 0 0 C -1.45 -0.5 -2.9 -1.73 -3.54 -4.32" /></g><g style="--ltx-stroke-color:#797979;--ltx-fill-color:#797979;" fill="#797979" stroke="#797979" transform="matrix(1.0 0.0 0.0 1.0 295.8 259.1)"><foreignobject style="--ltx-fo-width:7.78em;--ltx-fo-height:0.69em;--ltx-fo-depth:0em;font-size:10pt;" height="9.61" overflow="visible" transform="matrix(1 0 0 -1 0 9.61)" width="107.58"><span class="ltx_foreignobject_container"><span class="ltx_foreignobject_content"><span id="S0.F1.pic1.2" class="ltx_text" style="--ltx-fg-color:#797979;">Forward diffusion</span></span></span></foreignobject></g></g><g stroke-width="0.4pt"><g style="--ltx-stroke-color:#000000;--ltx-fill-color:#000000;" fill="#000000" stroke="#000000" transform="matrix(0.0 -1.0 1.0 0.0 66.06 191.12)"><foreignobject style="--ltx-fo-width:9.42em;--ltx-fo-height:0.69em;--ltx-fo-depth:0em;font-size:10pt;" height="9.61" overflow="visible" transform="matrix(1 0 0 -1 0 9.61)" width="130.28"><span class="ltx_foreignobject_container"><span class="ltx_foreignobject_content"><span id="S0.F1.pic1.3" class="ltx_text" style="--ltx-fg-color:#154C79;">Gaussian distribution</span></span></span></foreignobject></g><g style="--ltx-stroke-color:#000000;--ltx-fill-color:#000000;" fill="#000000" stroke="#000000" transform="matrix(0.0 1.0 -1.0 0.0 634.73 73.36)"><foreignobject style="--ltx-fo-width:7.61em;--ltx-fo-height:0.69em;--ltx-fo-depth:0em;font-size:10pt;" height="9.61" overflow="visible" transform="matrix(1 0 0 -1 0 9.61)" width="105.24"><span class="ltx_foreignobject_container"><span class="ltx_foreignobject_content"><span id="S0.F1.pic1.4" class="ltx_text" style="--ltx-fg-color:#154C79;">Data distribution</span></span></span></foreignobject></g><g style="--ltx-stroke-color:#000000;--ltx-fill-color:#000000;" fill="#000000" stroke="#000000" transform="matrix(1.0 0.0 0.0 1.0 4.89 4.89)"><foreignobject style="--ltx-fo-width:48.2em;--ltx-fo-height:17.27em;--ltx-fo-depth:0em;font-size:10pt;" height="239" overflow="visible" transform="matrix(1 0 0 -1 0 239)" width="667.01"><span class="ltx_foreignobject_container"><span class="ltx_foreignobject_content"><img src="arxiv-2402-09821v3--c077ddd96d98.figures/figure-1.webp" id="S0.F1.pic1.g1" class="ltx_graphics ltx_img_landscape" style="aspect-ratio:667/239;" width="667" height="239" alt="Refer to caption"></span></span></foreignobject></g><g stroke-dasharray="3.0pt,3.0pt" stroke-dashoffset="0.0pt" stroke-width="0.8pt"><path style="fill:none" d="M 161.42 125.98 L 133.86 -59.06" /></g><g style="--ltx-stroke-color:#A8DB33;--ltx-fill-color:#A8DB33;--ltx-fg-color:#A8DB33;" color="#A8DB33" fill="#A8DB33" stroke="#A8DB33"><path d="M 161.42 125.98 M 166.95 125.98 C 166.95 129.04 164.47 131.52 161.42 131.52 C 158.36 131.52 155.88 129.04 155.88 125.98 C 155.88 122.93 158.36 120.45 161.42 120.45 C 164.47 120.45 166.95 122.93 166.95 125.98 Z M 161.42 125.98" /></g><g style="--ltx-fill-color:#DBDBDB;" fill="#DBDBDB" stroke-width="1.0pt"><path d="M 154.61 -59.06 C 154.61 -47.59 145.32 -38.3 133.86 -38.3 C 122.39 -38.3 113.1 -47.59 113.1 -59.06 C 113.1 -70.52 122.39 -79.81 133.86 -79.81 C 145.32 -79.81 154.61 -70.52 154.61 -59.06 Z M 133.86 -59.06" /></g><g style="--ltx-stroke-color:#000000;--ltx-fill-color:#000000;" fill="#000000" stroke="#000000" stroke-width="1.0pt" transform="matrix(1.0 0.0 0.0 1.0 122.32 -60.4)"><foreignobject style="--ltx-fo-width:1.67em;--ltx-fo-height:0.44em;--ltx-fo-depth:0.25em;font-size:10pt;" height="9.62" overflow="visible" transform="matrix(1 0 0 -1 0 6.15)" width="23.08"><span class="ltx_foreignobject_container"><span class="ltx_foreignobject_content"><math id="S0.F1.pic1.m1" class="ltx_Math" alttext="\mathbf{x}_{\tau_{N}}" display="inline" intent=":literal"><semantics><msub><mi>𝐱</mi><msub><mi>τ</mi><mi>N</mi></msub></msub><annotation encoding="application/x-tex">\mathbf{x}_{\tau_{N}}</annotation></semantics></math></span></span></foreignobject></g><g style="--ltx-fill-color:#FFFFFF;" fill="#FFFFFF"><path style="stroke:none" d="M 104.89 -13.27 C 104.89 -1.81 95.6 7.49 84.14 7.49 C 72.67 7.49 63.38 -1.81 63.38 -13.27 C 63.38 -24.73 72.67 -34.02 84.14 -34.02 C 95.6 -34.02 104.89 -24.73 104.89 -13.27 Z M 84.14 -13.27" /><clippath id="pgfcp1"><path d="M 104.89 -13.27 C 104.89 -1.81 95.6 7.49 84.14 7.49 C 72.67 7.49 63.38 -1.81 63.38 -13.27 C 63.38 -24.73 72.67 -34.02 84.14 -34.02 C 95.6 -34.02 104.89 -24.73 104.89 -13.27 Z M 84.14 -13.27" /></clippath><g clip-path="url(#pgfcp1)"><g fill-opacity="1" stroke-opacity="1" transform="matrix(1.0 0.0 0.0 1.0 63.38 -34.02)"><foreignobject style="--ltx-fo-width:20.81em;--ltx-fo-height:20.81em;--ltx-fo-depth:0em;font-size:10pt;" height="288" overflow="visible" transform="matrix(1 0 0 -1 0 288)" width="288"><span class="ltx_foreignobject_container"><span class="ltx_foreignobject_content"><img src="arxiv-2402-09821v3--c077ddd96d98.figures/figure-2.webp" id="S0.F1.pic1.g2" class="ltx_graphics ltx_img_square" style="aspect-ratio:288/288;" width="288" height="288" alt="Refer to caption"></span></span></foreignobject></g></g><path style="fill:none" d="M 104.89 -13.27 C 104.89 -1.81 95.6 7.49 84.14 7.49 C 72.67 7.49 63.38 -1.81 63.38 -13.27 C 63.38 -24.73 72.67 -34.02 84.14 -34.02 C 95.6 -34.02 104.89 -24.73 104.89 -13.27 Z M 84.14 -13.27" /></g><path style="fill:none" d="M 118.08 -44.53 L 99.61 -27.52" /><g style="--ltx-fill-color:#FFFFFF;" fill="#FFFFFF"><path style="stroke:none" d="M 36.46 -148.57 h 62.27 v 62.27 h -62.27 Z" /><clippath id="pgfcp2"><path d="M 36.46 -148.57 h 62.27 v 62.27 h -62.27 Z" /></clippath><g clip-path="url(#pgfcp2)"><g fill-opacity="1" stroke-opacity="1" transform="matrix(1.0 0.0 0.0 1.0 26.09 -148.57)"><foreignobject style="--ltx-fo-width:46.25em;--ltx-fo-height:34.69em;--ltx-fo-depth:0em;font-size:10pt;" height="480.01" overflow="visible" transform="matrix(1 0 0 -1 0 480.01)" width="640.01"><span class="ltx_foreignobject_container"><span class="ltx_foreignobject_content"><img src="arxiv-2402-09821v3--c077ddd96d98.figures/figure-3.webp" id="S0.F1.pic1.g3" class="ltx_graphics ltx_img_landscape" style="aspect-ratio:640/480;" width="640" height="480" alt="Refer to caption"></span></span></foreignobject></g></g><path style="fill:none" d="M 36.46 -148.57 h 62.27 v 62.27 h -62.27 Z" /></g><path style="fill:none" d="M 116.9 -72.18 L 99.01 -86.03" /><g style="--ltx-fill-color:#DBDBDB;" fill="#DBDBDB" stroke-width="1.0pt"><path d="M 295.93 -59.06 C 295.93 -47.59 286.64 -38.3 275.18 -38.3 C 263.71 -38.3 254.42 -47.59 254.42 -59.06 C 254.42 -70.52 263.71 -79.81 275.18 -79.81 C 286.64 -79.81 295.93 -70.52 295.93 -59.06 Z M 275.18 -59.06" /></g><g style="--ltx-stroke-color:#000000;--ltx-fill-color:#000000;" fill="#000000" stroke="#000000" stroke-width="1.0pt" transform="matrix(1.0 0.0 0.0 1.0 264.69 -60.4)"><foreignobject style="--ltx-fo-width:1.52em;--ltx-fo-height:0.44em;--ltx-fo-depth:0.25em;font-size:10pt;" height="9.61" overflow="visible" transform="matrix(1 0 0 -1 0 6.15)" width="20.98"><span class="ltx_foreignobject_container"><span class="ltx_foreignobject_content"><math id="S0.F1.pic1.m2" class="ltx_Math" alttext="\mathbf{x}_{\tau_{n}}" display="inline" intent=":literal"><semantics><msub><mi>𝐱</mi><msub><mi>τ</mi><mi>n</mi></msub></msub><annotation encoding="application/x-tex">\mathbf{x}_{\tau_{n}}</annotation></semantics></math></span></span></foreignobject></g><g stroke-dasharray="3.0pt,3.0pt" stroke-dashoffset="0.0pt" stroke-width="0.8pt"><path style="fill:none" d="M 270.29 -38.17 L 253.15 35.04" /></g><g style="--ltx-stroke-color:#FFFFFF;--ltx-fill-color:#FFFFFF;--ltx-fg-color:#FFFFFF;" color="#FFFFFF" fill="#FFFFFF" stroke="#FFFFFF" stroke-dasharray="3.0pt,3.0pt" stroke-dashoffset="0.0pt" stroke-width="0.8pt"><path style="fill:none" d="M 253.15 35.04 L 236.22 110.24" /></g><g style="--ltx-stroke-color:#A8DB33;--ltx-fill-color:#A8DB33;--ltx-fg-color:#A8DB33;" color="#A8DB33" fill="#A8DB33" stroke="#A8DB33"><path d="M 236.22 110.24 M 241.76 110.24 C 241.76 113.29 239.28 115.77 236.22 115.77 C 233.16 115.77 230.69 113.29 230.69 110.24 C 230.69 107.18 233.16 104.7 236.22 104.7 C 239.28 104.7 241.76 107.18 241.76 110.24 Z M 236.22 110.24" /></g><g style="--ltx-fill-color:#FFFFFF;" fill="#FFFFFF"><path style="stroke:none" d="M 246.21 -13.27 C 246.21 -1.81 236.92 7.49 225.46 7.49 C 213.99 7.49 204.7 -1.81 204.7 -13.27 C 204.7 -24.73 213.99 -34.02 225.46 -34.02 C 236.92 -34.02 246.21 -24.73 246.21 -13.27 Z M 225.46 -13.27" /><clippath id="pgfcp3"><path d="M 246.21 -13.27 C 246.21 -1.81 236.92 7.49 225.46 7.49 C 213.99 7.49 204.7 -1.81 204.7 -13.27 C 204.7 -24.73 213.99 -34.02 225.46 -34.02 C 236.92 -34.02 246.21 -24.73 246.21 -13.27 Z M 225.46 -13.27" /></clippath><g clip-path="url(#pgfcp3)"><g fill-opacity="1" stroke-opacity="1" transform="matrix(1.0 0.0 0.0 1.0 204.7 -34.02)"><foreignobject style="--ltx-fo-width:20.81em;--ltx-fo-height:20.81em;--ltx-fo-depth:0em;font-size:10pt;" height="288" overflow="visible" transform="matrix(1 0 0 -1 0 288)" width="288"><span class="ltx_foreignobject_container"><span class="ltx_foreignobject_content"><img src="arxiv-2402-09821v3--c077ddd96d98.figures/figure-4.webp" id="S0.F1.pic1.g4" class="ltx_graphics ltx_img_square" style="aspect-ratio:288/288;" width="288" height="288" alt="Refer to caption"></span></span></foreignobject></g></g><path style="fill:none" d="M 246.21 -13.27 C 246.21 -1.81 236.92 7.49 225.46 7.49 C 213.99 7.49 204.7 -1.81 204.7 -13.27 C 204.7 -24.73 213.99 -34.02 225.46 -34.02 C 236.92 -34.02 246.21 -24.73 246.21 -13.27 Z M 225.46 -13.27" /></g><path style="fill:none" d="M 259.4 -44.53 L 240.93 -27.52" /><g style="--ltx-fill-color:#FFFFFF;" fill="#FFFFFF"><path style="stroke:none" d="M 177.78 -148.57 h 62.27 v 62.27 h -62.27 Z" /><clippath id="pgfcp4"><path d="M 177.78 -148.57 h 62.27 v 62.27 h -62.27 Z" /></clippath><g clip-path="url(#pgfcp4)"><g fill-opacity="1" stroke-opacity="1" transform="matrix(1.0 0.0 0.0 1.0 167.41 -148.57)"><foreignobject style="--ltx-fo-width:46.25em;--ltx-fo-height:34.69em;--ltx-fo-depth:0em;font-size:10pt;" height="480.01" overflow="visible" transform="matrix(1 0 0 -1 0 480.01)" width="640.01"><span class="ltx_foreignobject_container"><span class="ltx_foreignobject_content"><img src="arxiv-2402-09821v3--c077ddd96d98.figures/figure-5.webp" id="S0.F1.pic1.g5" class="ltx_graphics ltx_img_landscape" style="aspect-ratio:640/480;" width="640" height="480" alt="Refer to caption"></span></span></foreignobject></g></g><path style="fill:none" d="M 177.78 -148.57 h 62.27 v 62.27 h -62.27 Z" /></g><path style="fill:none" d="M 258.22 -72.18 L 240.33 -86.03" /><g style="--ltx-fill-color:#DBDBDB;" fill="#DBDBDB" stroke-width="1.0pt"><path d="M 437.25 -59.06 C 437.25 -47.59 427.96 -38.3 416.5 -38.3 C 405.03 -38.3 395.74 -47.59 395.74 -59.06 C 395.74 -70.52 405.03 -79.81 416.5 -79.81 C 427.96 -79.81 437.25 -70.52 437.25 -59.06 Z M 416.5 -59.06" /></g><g style="--ltx-stroke-color:#000000;--ltx-fill-color:#000000;" fill="#000000" stroke="#000000" stroke-width="1.0pt" transform="matrix(1.0 0.0 0.0 1.0 402.02 -60.4)"><foreignobject style="--ltx-fo-width:2.09em;--ltx-fo-height:0.44em;--ltx-fo-depth:0.25em;font-size:10pt;" height="9.61" overflow="visible" transform="matrix(1 0 0 -1 0 6.15)" width="28.95"><span class="ltx_foreignobject_container"><span class="ltx_foreignobject_content"><math id="S0.F1.pic1.m3" class="ltx_Math" alttext="\mathbf{x}_{\tau_{n-1}}" display="inline" intent=":literal"><semantics><msub><mi>𝐱</mi><msub><mi>τ</mi><mrow><mi>n</mi><mo>−</mo><mn>1</mn></mrow></msub></msub><annotation encoding="application/x-tex">\mathbf{x}_{\tau_{n-1}}</annotation></semantics></math></span></span></foreignobject></g><g stroke-dasharray="3.0pt,3.0pt" stroke-dashoffset="0.0pt" stroke-width="0.8pt"><path style="fill:none" d="M 401.53 -43.69 L 324.8 35.04" /></g><g style="--ltx-stroke-color:#FFFFFF;--ltx-fill-color:#FFFFFF;--ltx-fg-color:#FFFFFF;" color="#FFFFFF" fill="#FFFFFF" stroke="#FFFFFF" stroke-dasharray="3.0pt,3.0pt" stroke-dashoffset="0.0pt" stroke-width="0.8pt"><path style="fill:none" d="M 324.8 35.04 L 249.21 114.17" /></g><g style="--ltx-stroke-color:#A8DB33;--ltx-fill-color:#A8DB33;--ltx-fg-color:#A8DB33;" color="#A8DB33" fill="#A8DB33" stroke="#A8DB33"><path d="M 249.21 114.17 M 254.75 114.17 C 254.75 117.23 252.27 119.71 249.21 119.71 C 246.16 119.71 243.68 117.23 243.68 114.17 C 243.68 111.12 246.16 108.64 249.21 108.64 C 252.27 108.64 254.75 111.12 254.75 114.17 Z M 249.21 114.17" /></g><g style="--ltx-fill-color:#FFFFFF;" fill="#FFFFFF"><path style="stroke:none" d="M 486.98 -13.27 C 486.98 -1.81 477.68 7.49 466.22 7.49 C 454.76 7.49 445.47 -1.81 445.47 -13.27 C 445.47 -24.73 454.76 -34.02 466.22 -34.02 C 477.68 -34.02 486.98 -24.73 486.98 -13.27 Z M 466.22 -13.27" /><clippath id="pgfcp5"><path d="M 486.98 -13.27 C 486.98 -1.81 477.68 7.49 466.22 7.49 C 454.76 7.49 445.47 -1.81 445.47 -13.27 C 445.47 -24.73 454.76 -34.02 466.22 -34.02 C 477.68 -34.02 486.98 -24.73 486.98 -13.27 Z M 466.22 -13.27" /></clippath><g clip-path="url(#pgfcp5)"><g fill-opacity="1" stroke-opacity="1" transform="matrix(1.0 0.0 0.0 1.0 445.47 -34.02)"><foreignobject style="--ltx-fo-width:20.81em;--ltx-fo-height:20.81em;--ltx-fo-depth:0em;font-size:10pt;" height="288" overflow="visible" transform="matrix(1 0 0 -1 0 288)" width="288"><span class="ltx_foreignobject_container"><span class="ltx_foreignobject_content"><img src="arxiv-2402-09821v3--c077ddd96d98.figures/figure-6.webp" id="S0.F1.pic1.g6" class="ltx_graphics ltx_img_square" style="aspect-ratio:288/288;" width="288" height="288" alt="Refer to caption"></span></span></foreignobject></g></g><path style="fill:none" d="M 486.98 -13.27 C 486.98 -1.81 477.68 7.49 466.22 7.49 C 454.76 7.49 445.47 -1.81 445.47 -13.27 C 445.47 -24.73 454.76 -34.02 466.22 -34.02 C 477.68 -34.02 486.98 -24.73 486.98 -13.27 Z M 466.22 -13.27" /></g><path style="fill:none" d="M 432.28 -44.53 L 450.75 -27.52" /><g style="--ltx-fill-color:#FFFFFF;" fill="#FFFFFF"><path style="stroke:none" d="M 451.63 -148.57 h 62.27 v 62.27 h -62.27 Z" /><clippath id="pgfcp6"><path d="M 451.63 -148.57 h 62.27 v 62.27 h -62.27 Z" /></clippath><g clip-path="url(#pgfcp6)"><g fill-opacity="1" stroke-opacity="1" transform="matrix(1.0 0.0 0.0 1.0 441.25 -148.57)"><foreignobject style="--ltx-fo-width:46.25em;--ltx-fo-height:34.69em;--ltx-fo-depth:0em;font-size:10pt;" height="480.01" overflow="visible" transform="matrix(1 0 0 -1 0 480.01)" width="640.01"><span class="ltx_foreignobject_container"><span class="ltx_foreignobject_content"><img src="arxiv-2402-09821v3--c077ddd96d98.figures/figure-7.webp" id="S0.F1.pic1.g7" class="ltx_graphics ltx_img_landscape" style="aspect-ratio:640/480;" width="640" height="480" alt="Refer to caption"></span></span></foreignobject></g></g><path style="fill:none" d="M 451.63 -148.57 h 62.27 v 62.27 h -62.27 Z" /></g><path style="fill:none" d="M 433.46 -72.18 L 451.35 -86.03" /><g style="--ltx-fill-color:#DBDBDB;" fill="#DBDBDB" stroke-width="1.0pt"><path d="M 578.57 -59.06 C 578.57 -47.59 569.28 -38.3 557.82 -38.3 C 546.35 -38.3 537.06 -47.59 537.06 -59.06 C 537.06 -70.52 546.35 -79.81 557.82 -79.81 C 569.28 -79.81 578.57 -70.52 578.57 -59.06 Z M 557.82 -59.06" /></g><g style="--ltx-stroke-color:#000000;--ltx-fill-color:#000000;" fill="#000000" stroke="#000000" stroke-width="1.0pt" transform="matrix(1.0 0.0 0.0 1.0 548.02 -60.4)"><foreignobject style="--ltx-fo-width:1.42em;--ltx-fo-height:0.44em;--ltx-fo-depth:0.25em;font-size:10pt;" height="9.61" overflow="visible" transform="matrix(1 0 0 -1 0 6.15)" width="19.59"><span class="ltx_foreignobject_container"><span class="ltx_foreignobject_content"><math id="S0.F1.pic1.m4" class="ltx_Math" alttext="\mathbf{x}_{\tau_{0}}" display="inline" intent=":literal"><semantics><msub><mi>𝐱</mi><msub><mi>τ</mi><mn>0</mn></msub></msub><annotation encoding="application/x-tex">\mathbf{x}_{\tau_{0}}</annotation></semantics></math></span></span></foreignobject></g><g stroke-dasharray="3.0pt,3.0pt" stroke-dashoffset="0.0pt" stroke-width="0.8pt"><path style="fill:none" d="M 536.22 92.52 L 554.79 -37.82" /></g><g style="--ltx-stroke-color:#A8DB33;--ltx-fill-color:#A8DB33;--ltx-fg-color:#A8DB33;" color="#A8DB33" fill="#A8DB33" stroke="#A8DB33"><path d="M 536.22 92.52 M 541.76 92.52 C 541.76 95.58 539.28 98.05 536.22 98.05 C 533.16 98.05 530.69 95.58 530.69 92.52 C 530.69 89.46 533.16 86.99 536.22 86.99 C 539.28 86.99 541.76 89.46 541.76 92.52 Z M 536.22 92.52" /></g><g style="--ltx-fill-color:#FFFFFF;" fill="#FFFFFF"><path style="stroke:none" d="M 628.3 -13.27 C 628.3 -1.81 619 7.49 607.54 7.49 C 596.08 7.49 586.78 -1.81 586.78 -13.27 C 586.78 -24.73 596.08 -34.02 607.54 -34.02 C 619 -34.02 628.3 -24.73 628.3 -13.27 Z M 607.54 -13.27" /><clippath id="pgfcp7"><path d="M 628.3 -13.27 C 628.3 -1.81 619 7.49 607.54 7.49 C 596.08 7.49 586.78 -1.81 586.78 -13.27 C 586.78 -24.73 596.08 -34.02 607.54 -34.02 C 619 -34.02 628.3 -24.73 628.3 -13.27 Z M 607.54 -13.27" /></clippath><g clip-path="url(#pgfcp7)"><g fill-opacity="1" stroke-opacity="1" transform="matrix(1.0 0.0 0.0 1.0 586.79 -34.02)"><foreignobject style="--ltx-fo-width:20.81em;--ltx-fo-height:20.81em;--ltx-fo-depth:0em;font-size:10pt;" height="288" overflow="visible" transform="matrix(1 0 0 -1 0 288)" width="288"><span class="ltx_foreignobject_container"><span class="ltx_foreignobject_content"><img src="arxiv-2402-09821v3--c077ddd96d98.figures/figure-8.webp" id="S0.F1.pic1.g8" class="ltx_graphics ltx_img_square" style="aspect-ratio:288/288;" width="288" height="288" alt="Refer to caption"></span></span></foreignobject></g></g><path style="fill:none" d="M 628.3 -13.27 C 628.3 -1.81 619 7.49 607.54 7.49 C 596.08 7.49 586.78 -1.81 586.78 -13.27 C 586.78 -24.73 596.08 -34.02 607.54 -34.02 C 619 -34.02 628.3 -24.73 628.3 -13.27 Z M 607.54 -13.27" /></g><path style="fill:none" d="M 573.59 -44.53 L 592.07 -27.52" /><g style="--ltx-fill-color:#FFFFFF;" fill="#FFFFFF"><path style="stroke:none" d="M 592.95 -148.57 h 62.27 v 62.27 h -62.27 Z" /><clippath id="pgfcp8"><path d="M 592.95 -148.57 h 62.27 v 62.27 h -62.27 Z" /></clippath><g clip-path="url(#pgfcp8)"><g fill-opacity="1" stroke-opacity="1" transform="matrix(1.0 0.0 0.0 1.0 582.57 -148.57)"><foreignobject style="--ltx-fo-width:46.25em;--ltx-fo-height:34.69em;--ltx-fo-depth:0em;font-size:10pt;" height="480.01" overflow="visible" transform="matrix(1 0 0 -1 0 480.01)" width="640.01"><span class="ltx_foreignobject_container"><span class="ltx_foreignobject_content"><img src="arxiv-2402-09821v3--c077ddd96d98.figures/figure-9.webp" id="S0.F1.pic1.g9" class="ltx_graphics ltx_img_landscape" style="aspect-ratio:640/480;" width="640" height="480" alt="Refer to caption"></span></span></foreignobject></g></g><path style="fill:none" d="M 592.95 -148.57 h 62.27 v 62.27 h -62.27 Z" /></g><path style="fill:none" d="M 574.78 -72.18 L 592.67 -86.03" /><g style="--ltx-stroke-color:#4672C3;--ltx-fill-color:#4672C3;--ltx-fg-color:#4672C3;" color="#4672C3" fill="#4672C3" stroke="#4672C3" stroke-width="0.8pt"><path style="fill:none" d="M 155.31 -63.21 L 177.44 -63.21" /></g><g style="--ltx-stroke-color:#4672C3;--ltx-fill-color:#4672C3;--ltx-fg-color:#4672C3;" color="#4672C3" fill="#4672C3" stroke="#4672C3" stroke-dasharray="3.0pt,3.0pt" stroke-dashoffset="0.0pt" stroke-width="0.8pt"><path style="fill:none" d="M 177.44 -63.21 L 231.59 -63.21" /></g><g stroke-width="0.8pt"><g style="--ltx-stroke-color:#4672C3;--ltx-fill-color:#4672C3;--ltx-fg-color:#4672C3;" color="#4672C3" fill="#4672C3" stroke="#4672C3"><path style="fill:none" d="M 231.59 -63.21 L 252.62 -63.21" /></g><g style="--ltx-stroke-color:#4672C3;--ltx-fill-color:#4672C3;--ltx-fg-color:#4672C3;" color="#4672C3" fill="#4672C3" stroke="#4672C3" stroke-dasharray="none" stroke-dashoffset="0.0pt" stroke-linecap="round" stroke-linejoin="round" transform="matrix(1.0 0.0 0.0 1.0 253.18 -63.21)"><path style="fill:none" d="M -3.54 4.32 C -2.9 1.73 -1.45 0.5 0 0 C -1.45 -0.5 -2.9 -1.73 -3.54 -4.32" /></g></g><g style="--ltx-stroke-color:#797979;--ltx-fill-color:#797979;--ltx-fg-color:#797979;" color="#797979" fill="#797979" stroke="#797979"><path style="fill:none" d="M 155.86 -54.9 L 177.44 -54.9" /></g><g style="--ltx-stroke-color:#797979;--ltx-fill-color:#797979;--ltx-fg-color:#797979;" color="#797979" fill="#797979" stroke="#797979" stroke-dasharray="none" stroke-dashoffset="0.0pt" stroke-linecap="round" stroke-linejoin="round" transform="matrix(-1.0 0.0 0.0 -1.0 155.58 -54.9)"><path style="fill:none" d="M -2.88 3.32 C -2.35 1.33 -1.18 0.39 0 0 C -1.18 -0.39 -2.35 -1.33 -2.88 -3.32" /></g><g style="--ltx-stroke-color:#797979;--ltx-fill-color:#797979;--ltx-fg-color:#797979;" color="#797979" fill="#797979" stroke="#797979" stroke-dasharray="3.0pt,3.0pt" stroke-dashoffset="0.0pt"><path style="fill:none" d="M 177.44 -54.9 L 231.59 -54.9" /></g><g style="--ltx-stroke-color:#797979;--ltx-fill-color:#797979;--ltx-fg-color:#797979;" color="#797979" fill="#797979" stroke="#797979"><path style="fill:none" d="M 231.59 -54.9 L 253.73 -54.9" /></g><g style="--ltx-stroke-color:#797979;--ltx-fill-color:#797979;--ltx-fg-color:#797979;" color="#797979" fill="#797979" stroke="#797979"><path style="fill:none" d="M 395.05 -54.9 L 297.18 -54.9" /></g><g style="--ltx-stroke-color:#797979;--ltx-fill-color:#797979;--ltx-fg-color:#797979;" color="#797979" fill="#797979" stroke="#797979" stroke-dasharray="none" stroke-dashoffset="0.0pt" stroke-linecap="round" stroke-linejoin="round" transform="matrix(-1.0 0.0 0.0 -1.0 296.9 -54.9)"><path style="fill:none" d="M -2.88 3.32 C -2.35 1.33 -1.18 0.39 0 0 C -1.18 -0.39 -2.35 -1.33 -2.88 -3.32" /></g><g style="--ltx-stroke-color:#4672C3;--ltx-fill-color:#4672C3;--ltx-fg-color:#4672C3;" color="#4672C3" fill="#4672C3" stroke="#4672C3" stroke-width="0.8pt"><path style="fill:none" d="M 437.95 -63.21 L 460.08 -63.21" /></g><g style="--ltx-stroke-color:#4672C3;--ltx-fill-color:#4672C3;--ltx-fg-color:#4672C3;" color="#4672C3" fill="#4672C3" stroke="#4672C3" stroke-dasharray="3.0pt,3.0pt" stroke-dashoffset="0.0pt" stroke-width="0.8pt"><path style="fill:none" d="M 460.08 -63.21 L 514.23 -63.21" /></g><g stroke-width="0.8pt"><g style="--ltx-stroke-color:#4672C3;--ltx-fill-color:#4672C3;--ltx-fg-color:#4672C3;" color="#4672C3" fill="#4672C3" stroke="#4672C3"><path style="fill:none" d="M 514.23 -63.21 L 535.26 -63.21" /></g><g style="--ltx-stroke-color:#4672C3;--ltx-fill-color:#4672C3;--ltx-fg-color:#4672C3;" color="#4672C3" fill="#4672C3" stroke="#4672C3" stroke-dasharray="none" stroke-dashoffset="0.0pt" stroke-linecap="round" stroke-linejoin="round" transform="matrix(1.0 0.0 0.0 1.0 535.82 -63.21)"><path style="fill:none" d="M -3.54 4.32 C -2.9 1.73 -1.45 0.5 0 0 C -1.45 -0.5 -2.9 -1.73 -3.54 -4.32" /></g></g><g style="--ltx-stroke-color:#797979;--ltx-fill-color:#797979;--ltx-fg-color:#797979;" color="#797979" fill="#797979" stroke="#797979"><path style="fill:none" d="M 438.5 -54.9 L 460.08 -54.9" /></g><g style="--ltx-stroke-color:#797979;--ltx-fill-color:#797979;--ltx-fg-color:#797979;" color="#797979" fill="#797979" stroke="#797979" stroke-dasharray="none" stroke-dashoffset="0.0pt" stroke-linecap="round" stroke-linejoin="round" transform="matrix(-1.0 0.0 0.0 -1.0 438.22 -54.9)"><path style="fill:none" d="M -2.88 3.32 C -2.35 1.33 -1.18 0.39 0 0 C -1.18 -0.39 -2.35 -1.33 -2.88 -3.32" /></g><g style="--ltx-stroke-color:#797979;--ltx-fill-color:#797979;--ltx-fg-color:#797979;" color="#797979" fill="#797979" stroke="#797979" stroke-dasharray="3.0pt,3.0pt" stroke-dashoffset="0.0pt"><path style="fill:none" d="M 460.08 -54.9 L 514.23 -54.9" /></g><g style="--ltx-stroke-color:#797979;--ltx-fill-color:#797979;--ltx-fg-color:#797979;" color="#797979" fill="#797979" stroke="#797979"><path style="fill:none" d="M 514.23 -54.9 L 536.37 -54.9" /></g><g style="--ltx-fill-color:#FFFFFF;" fill="#FFFFFF"><path d="M 292.6 -246.24 h 103.78 v 83.02 h -103.78 Z" /></g><g style="--ltx-stroke-color:#000000;--ltx-fill-color:#000000;" fill="#000000" stroke="#000000" transform="matrix(1.0 0.0 0.0 1.0 297.49 -241.22)"><foreignobject style="--ltx-fo-width:6.79em;--ltx-fo-height:5.28em;--ltx-fo-depth:0em;font-size:10pt;" height="73" overflow="visible" transform="matrix(1 0 0 -1 0 73)" width="94"><span class="ltx_foreignobject_container"><span class="ltx_foreignobject_content"><img src="arxiv-2402-09821v3--c077ddd96d98.figures/figure-10.webp" id="S0.F1.pic1.g10" class="ltx_graphics ltx_img_landscape" style="aspect-ratio:94/73;" width="94" height="73" alt="Refer to caption"></span></span></foreignobject></g><g style="--ltx-stroke-color:#000000;--ltx-fill-color:#000000;" fill="#000000" stroke="#000000" transform="matrix(1.0 0.0 0.0 1.0 299.34 -153.37)"><foreignobject style="--ltx-fo-width:5.61em;--ltx-fo-height:0.69em;--ltx-fo-depth:0em;font-size:10pt;" height="9.61" overflow="visible" transform="matrix(1 0 0 -1 0 9.61)" width="77.68"><span class="ltx_foreignobject_container"><span class="ltx_foreignobject_content"><span id="S0.F1.pic1.5" class="ltx_text">Score model <math id="S0.F1.pic1.m5" class="ltx_Math" alttext="\mathbf{s}_{\theta}" display="inline" intent=":literal"><semantics><msub><mi>𝐬</mi><mi>θ</mi></msub><annotation encoding="application/x-tex">\mathbf{s}_{\theta}</annotation></semantics></math></span></span></span></foreignobject></g><g style="--ltx-stroke-color:#000000;--ltx-fill-color:#000000;" fill="#000000" stroke="#000000" transform="matrix(1.0 0.0 0.0 1.0 93.98 -207.4)"><foreignobject style="--ltx-fo-width:8.67em;--ltx-fo-height:0.69em;--ltx-fo-depth:0.19em;font-size:10pt;" height="12.3" overflow="visible" transform="matrix(1 0 0 -1 0 9.61)" width="119.92"><span class="ltx_foreignobject_container"><span class="ltx_foreignobject_content"><span id="S0.F1.pic1.6" class="ltx_text" style="--ltx-fg-color:#000000;">Conditioning input <math id="S0.F1.pic1.m6" class="ltx_Math" alttext="\mathbf{c}" display="inline" intent=":literal"><semantics><mi style="--ltx-fg-color:#000000;" mathcolor="#000000">𝐜</mi><annotation encoding="application/x-tex">\mathbf{c}</annotation></semantics></math></span></span></span></foreignobject></g><g style="--ltx-stroke-color:#000000;--ltx-fill-color:#000000;" fill="#000000" stroke="#000000" transform="matrix(1.0 0.0 0.0 1.0 95.16 -229.05)"><foreignobject style="--ltx-fo-width:6.71em;--ltx-fo-height:0.69em;--ltx-fo-depth:0em;font-size:10pt;" height="9.61" overflow="visible" transform="matrix(1 0 0 -1 0 9.61)" width="92.79"><span class="ltx_foreignobject_container"><span class="ltx_foreignobject_content">Noise schedule <math id="S0.F1.pic1.m7" class="ltx_Math" alttext="\sigma(\tau_{n})" display="inline" intent=":literal"><semantics><mrow><mi>σ</mi><mo>⁡</mo><mrow><mo stretchy="false">(</mo><msub><mi>τ</mi><mi>n</mi></msub><mo stretchy="false">)</mo></mrow></mrow><annotation encoding="application/x-tex">\sigma(\tau_{n})</annotation></semantics></math></span></span></foreignobject></g><g stroke-width="0.8pt"><g style="--ltx-stroke-color:#4672C3;--ltx-fill-color:#4672C3;--ltx-fg-color:#4672C3;" color="#4672C3" fill="#4672C3" stroke="#4672C3"><path style="fill:none" d="M 275.18 -80.5 L 275.18 -183.97 L 291.22 -183.97" /></g><g style="--ltx-stroke-color:#4672C3;--ltx-fill-color:#4672C3;--ltx-fg-color:#4672C3;" color="#4672C3" fill="#4672C3" stroke="#4672C3" stroke-dasharray="none" stroke-dashoffset="0.0pt" stroke-linecap="round" stroke-linejoin="round" transform="matrix(1.0 0.0 0.0 1.0 291.77 -183.97)"><path style="fill:none" d="M -3.54 4.32 C -2.9 1.73 -1.45 0.5 0 0 C -1.45 -0.5 -2.9 -1.73 -3.54 -4.32" /></g></g><g stroke-width="0.8pt"><path style="fill:none" d="M 227.87 -203.94 L 291.22 -204.03" /><g stroke-dasharray="none" stroke-dashoffset="0.0pt" stroke-linecap="round" stroke-linejoin="round" transform="matrix(1.0 -0.0015 0.0015 1.0 291.77 -204.03)"><path style="fill:none" d="M -3.54 4.32 C -2.9 1.73 -1.45 0.5 0 0 C -1.45 -0.5 -2.9 -1.73 -3.54 -4.32" /></g></g><g stroke-width="0.8pt"><path style="fill:none" d="M 224.69 -225.59 L 291.22 -225.48" /><g stroke-dasharray="none" stroke-dashoffset="0.0pt" stroke-linecap="round" stroke-linejoin="round" transform="matrix(1.0 0.00163 -0.00163 1.0 291.77 -225.48)"><path style="fill:none" d="M -3.54 4.32 C -2.9 1.73 -1.45 0.5 0 0 C -1.45 -0.5 -2.9 -1.73 -3.54 -4.32" /></g></g><g stroke-width="0.8pt"><g style="--ltx-stroke-color:#4672C3;--ltx-fill-color:#4672C3;--ltx-fg-color:#4672C3;" color="#4672C3" fill="#4672C3" stroke="#4672C3"><path style="fill:none" d="M 396.65 -204.72 L 416.5 -204.72 L 416.5 -81.61" /></g><g style="--ltx-stroke-color:#4672C3;--ltx-fill-color:#4672C3;--ltx-fg-color:#4672C3;" color="#4672C3" fill="#4672C3" stroke="#4672C3" stroke-dasharray="none" stroke-dashoffset="0.0pt" stroke-linecap="round" stroke-linejoin="round" transform="matrix(0.0 1.0 -1.0 0.0 416.5 -81.06)"><path style="fill:none" d="M -3.54 4.32 C -2.9 1.73 -1.45 0.5 0 0 C -1.45 -0.5 -2.9 -1.73 -3.54 -4.32" /></g></g><g style="--ltx-stroke-color:#000000;--ltx-fill-color:#000000;" fill="#000000" stroke="#000000" transform="matrix(1.0 0.0 0.0 1.0 46.66 -162.04)"><foreignobject style="--ltx-fo-width:3.56em;--ltx-fo-height:0.71em;--ltx-fo-depth:0.24em;font-size:8.5pt;" height="11.07" overflow="visible" transform="matrix(1 0 0 -1 0 8.3)" width="41.88"><span class="ltx_foreignobject_container"><span class="ltx_foreignobject_content"><span id="S0.F1.pic1.7" class="ltx_text" style="font-size:80%;">Time [s]</span></span></span></foreignobject></g><g style="--ltx-stroke-color:#000000;--ltx-fill-color:#000000;" fill="#000000" stroke="#000000" transform="matrix(0.0 1.0 -1.0 0.0 28.53 -142.37)"><foreignobject style="--ltx-fo-width:4.37em;--ltx-fo-height:0.71em;--ltx-fo-depth:0.24em;font-size:8.5pt;" height="11.07" overflow="visible" transform="matrix(1 0 0 -1 0 8.3)" width="51.45"><span class="ltx_foreignobject_container"><span class="ltx_foreignobject_content"><span id="S0.F1.pic1.8" class="ltx_text" style="font-size:80%;">Freq. [Hz]</span></span></span></foreignobject></g><g style="--ltx-stroke-color:#000000;--ltx-fill-color:#000000;" fill="#000000" stroke="#000000" transform="matrix(1.0 0.0 0.0 1.0 187.98 -162.04)"><foreignobject style="--ltx-fo-width:3.56em;--ltx-fo-height:0.71em;--ltx-fo-depth:0.24em;font-size:8.5pt;" height="11.07" overflow="visible" transform="matrix(1 0 0 -1 0 8.3)" width="41.88"><span class="ltx_foreignobject_container"><span class="ltx_foreignobject_content"><span id="S0.F1.pic1.9" class="ltx_text" style="font-size:80%;">Time [s]</span></span></span></foreignobject></g><g style="--ltx-stroke-color:#000000;--ltx-fill-color:#000000;" fill="#000000" stroke="#000000" transform="matrix(0.0 1.0 -1.0 0.0 169.85 -142.37)"><foreignobject style="--ltx-fo-width:4.37em;--ltx-fo-height:0.71em;--ltx-fo-depth:0.24em;font-size:8.5pt;" height="11.07" overflow="visible" transform="matrix(1 0 0 -1 0 8.3)" width="51.45"><span class="ltx_foreignobject_container"><span class="ltx_foreignobject_content"><span id="S0.F1.pic1.10" class="ltx_text" style="font-size:80%;">Freq. [Hz]</span></span></span></foreignobject></g><g style="--ltx-stroke-color:#000000;--ltx-fill-color:#000000;" fill="#000000" stroke="#000000" transform="matrix(1.0 0.0 0.0 1.0 461.82 -162.04)"><foreignobject style="--ltx-fo-width:3.56em;--ltx-fo-height:0.71em;--ltx-fo-depth:0.24em;font-size:8.5pt;" height="11.07" overflow="visible" transform="matrix(1 0 0 -1 0 8.3)" width="41.88"><span class="ltx_foreignobject_container"><span class="ltx_foreignobject_content"><span id="S0.F1.pic1.11" class="ltx_text" style="font-size:80%;">Time [s]</span></span></span></foreignobject></g><g style="--ltx-stroke-color:#000000;--ltx-fill-color:#000000;" fill="#000000" stroke="#000000" transform="matrix(0.0 1.0 -1.0 0.0 443.69 -142.37)"><foreignobject style="--ltx-fo-width:4.37em;--ltx-fo-height:0.71em;--ltx-fo-depth:0.24em;font-size:8.5pt;" height="11.07" overflow="visible" transform="matrix(1 0 0 -1 0 8.3)" width="51.45"><span class="ltx_foreignobject_container"><span class="ltx_foreignobject_content"><span id="S0.F1.pic1.12" class="ltx_text" style="font-size:80%;">Freq. [Hz]</span></span></span></foreignobject></g><g style="--ltx-stroke-color:#000000;--ltx-fill-color:#000000;" fill="#000000" stroke="#000000" transform="matrix(1.0 0.0 0.0 1.0 603.14 -162.04)"><foreignobject style="--ltx-fo-width:3.56em;--ltx-fo-height:0.71em;--ltx-fo-depth:0.24em;font-size:8.5pt;" height="11.07" overflow="visible" transform="matrix(1 0 0 -1 0 8.3)" width="41.88"><span class="ltx_foreignobject_container"><span class="ltx_foreignobject_content"><span id="S0.F1.pic1.13" class="ltx_text" style="font-size:80%;">Time [s]</span></span></span></foreignobject></g><g style="--ltx-stroke-color:#000000;--ltx-fill-color:#000000;" fill="#000000" stroke="#000000" transform="matrix(0.0 1.0 -1.0 0.0 585.01 -142.37)"><foreignobject style="--ltx-fo-width:4.37em;--ltx-fo-height:0.71em;--ltx-fo-depth:0.24em;font-size:8.5pt;" height="11.07" overflow="visible" transform="matrix(1 0 0 -1 0 8.3)" width="51.45"><span class="ltx_foreignobject_container"><span class="ltx_foreignobject_content"><span id="S0.F1.pic1.14" class="ltx_text" style="font-size:80%;">Freq. [Hz]</span></span></span></foreignobject></g></g></g></svg>