<svg id="Sx2.F3.pic4" class="ltx_picture" height="124.23" overflow="visible" version="1.1" viewbox="0 0 449.07 124.23" width="449.07"><g style="--ltx-stroke-color:#000000;--ltx-fill-color:#000000;" fill="#000000" stroke="#000000" stroke-width="0.4pt" transform="translate(0,124.23) matrix(1 0 0 -1 0 0) translate(-4.8,0) translate(0,47.66)"><g style="--ltx-stroke-color:#000000;--ltx-fill-color:#000000;" fill="#000000" stroke="#000000" transform="matrix(1.0 0.0 0.0 1.0 63.56 -2.04)"><foreignobject style="--ltx-fo-width:1.06em;--ltx-fo-height:0.44em;--ltx-fo-depth:0.15em;font-size:10pt;" height="8.23" overflow="visible" transform="matrix(1 0 0 -1 0 6.15)" width="14.61"><span class="ltx_foreignobject_container"><span class="ltx_foreignobject_content"><math id="Sx2.F3.pic4.m1" class="ltx_Math" alttext="\mathbf{x}_{0}" display="inline" intent=":literal"><semantics><msub><mi>𝐱</mi><mn>0</mn></msub><annotation encoding="application/x-tex">\mathbf{x}_{0}</annotation></semantics></math></span></span></foreignobject></g><g style="--ltx-fill-color:#FFFFFF;" fill="#FFFFFF"><path style="stroke:none" d="M 46.59 0 C 46.59 11.46 37.29 20.76 25.83 20.76 C 14.37 20.76 5.08 11.46 5.08 0 C 5.08 -11.46 14.37 -20.76 25.83 -20.76 C 37.29 -20.76 46.59 -11.46 46.59 0 Z M 25.83 0" /><clippath id="pgfcp17"><path d="M 46.59 0 C 46.59 11.46 37.29 20.76 25.83 20.76 C 14.37 20.76 5.08 11.46 5.08 0 C 5.08 -11.46 14.37 -20.76 25.83 -20.76 C 37.29 -20.76 46.59 -11.46 46.59 0 Z M 25.83 0" /></clippath><g clip-path="url(#pgfcp17)"><g fill-opacity="1" stroke-opacity="1" transform="matrix(1.0 0.0 0.0 1.0 -1.84 -20.76)"><foreignobject style="--ltx-fo-width:46.25em;--ltx-fo-height:34.69em;--ltx-fo-depth:0em;font-size:10pt;" height="480.01" overflow="visible" transform="matrix(1 0 0 -1 0 480.01)" width="640.01"><span class="ltx_foreignobject_container"><span class="ltx_foreignobject_content"><img src="arxiv-2402-09821v3--c077ddd96d98.figures/figure-12.webp" id="Sx2.F3.pic4.g1" class="ltx_graphics ltx_img_landscape" style="aspect-ratio:640/480;" width="640" height="480" alt="Refer to caption"></span></span></foreignobject></g></g><path style="fill:none" d="M 46.59 0 C 46.59 11.46 37.29 20.76 25.83 20.76 C 14.37 20.76 5.08 11.46 5.08 0 C 5.08 -11.46 14.37 -20.76 25.83 -20.76 C 37.29 -20.76 46.59 -11.46 46.59 0 Z M 25.83 0" /></g><path style="fill:none" d="M 107.38 8.58 L 107.38 -8.58" /><path style="fill:none" d="M 98.81 0 L 115.96 0" /><path style="fill:none" d="M 115.69 0 C 115.69 4.59 111.97 8.3 107.38 8.3 C 102.8 8.3 99.08 4.59 99.08 0 C 99.08 -4.59 102.8 -8.3 107.38 -8.3 C 111.97 -8.3 115.69 -4.59 115.69 0 Z M 107.38 0" /><g style="--ltx-stroke-color:#000000;--ltx-fill-color:#000000;" fill="#000000" stroke="#000000" transform="matrix(1.0 0.0 0.0 1.0 118.34 9.09)"><foreignobject style="--ltx-fo-width:1.03em;--ltx-fo-height:0.44em;--ltx-fo-depth:0.15em;font-size:10pt;" height="8.23" overflow="visible" transform="matrix(1 0 0 -1 0 6.15)" width="14.19"><span class="ltx_foreignobject_container"><span class="ltx_foreignobject_content"><math id="Sx2.F3.pic4.m2" class="ltx_Math" alttext="\mathbf{x}_{\tau}" display="inline" intent=":literal"><semantics><msub><mi>𝐱</mi><mi>τ</mi></msub><annotation encoding="application/x-tex">\mathbf{x}_{\tau}</annotation></semantics></math></span></span></foreignobject></g><g style="--ltx-fill-color:#FFFFFF;" fill="#FFFFFF"><path style="stroke:none" d="M 146.19 52.98 C 146.19 64.44 136.9 73.73 125.44 73.73 C 113.97 73.73 104.68 64.44 104.68 52.98 C 104.68 41.51 113.97 32.22 125.44 32.22 C 136.9 32.22 146.19 41.51 146.19 52.98 Z M 125.44 52.98" /><clippath id="pgfcp18"><path d="M 146.19 52.98 C 146.19 64.44 136.9 73.73 125.44 73.73 C 113.97 73.73 104.68 64.44 104.68 52.98 C 104.68 41.51 113.97 32.22 125.44 32.22 C 136.9 32.22 146.19 41.51 146.19 52.98 Z M 125.44 52.98" /></clippath><g clip-path="url(#pgfcp18)"><g fill-opacity="1" stroke-opacity="1" transform="matrix(1.0 0.0 0.0 1.0 97.76 32.22)"><foreignobject style="--ltx-fo-width:46.25em;--ltx-fo-height:34.69em;--ltx-fo-depth:0em;font-size:10pt;" height="480.01" overflow="visible" transform="matrix(1 0 0 -1 0 480.01)" width="640.01"><span class="ltx_foreignobject_container"><span class="ltx_foreignobject_content"><img src="arxiv-2402-09821v3--c077ddd96d98.figures/figure-13.webp" id="Sx2.F3.pic4.g2" class="ltx_graphics ltx_img_landscape" style="aspect-ratio:640/480;" width="640" height="480" alt="Refer to caption"></span></span></foreignobject></g></g><path style="fill:none" d="M 146.19 52.98 C 146.19 64.44 136.9 73.73 125.44 73.73 C 113.97 73.73 104.68 64.44 104.68 52.98 C 104.68 41.51 113.97 32.22 125.44 32.22 C 136.9 32.22 146.19 41.51 146.19 52.98 Z M 125.44 52.98" /></g><g style="--ltx-stroke-color:#000000;--ltx-fill-color:#000000;" fill="#000000" stroke="#000000" transform="matrix(1.0 0.0 0.0 1.0 104.58 -43.05)"><foreignobject style="--ltx-fo-width:0.41em;--ltx-fo-height:0.43em;--ltx-fo-depth:0em;font-size:10pt;" height="5.96" overflow="visible" transform="matrix(1 0 0 -1 0 5.96)" width="5.62"><span class="ltx_foreignobject_container"><span class="ltx_foreignobject_content"><math id="Sx2.F3.pic4.m3" class="ltx_Math" alttext="\boldsymbol{\epsilon}" display="inline" intent=":literal"><semantics><mi class="ltx_mathvariant_bold-italic" mathvariant="bold-italic">ϵ</mi><annotation encoding="application/x-tex">\boldsymbol{\epsilon}</annotation></semantics></math></span></span></foreignobject></g><g style="--ltx-fill-color:#FFFFFF;" fill="#FFFFFF"><path d="M 145.77 -20.76 h 62.27 v 41.51 h -62.27 Z" /></g><g style="--ltx-stroke-color:#000000;--ltx-fill-color:#000000;" fill="#000000" stroke="#000000" transform="matrix(1.0 0.0 0.0 1.0 161.53 -3.38)"><foreignobject style="--ltx-fo-width:2.22em;--ltx-fo-height:0.68em;--ltx-fo-depth:0.19em;font-size:10pt;" height="12.15" overflow="visible" transform="matrix(1 0 0 -1 0 9.46)" width="30.75"><span class="ltx_foreignobject_container"><span class="ltx_foreignobject_content"><math id="Sx2.F3.pic4.m4" class="ltx_Math" alttext="\mathrm{CQT}" display="inline" intent=":literal"><semantics><mi>CQT</mi><annotation encoding="application/x-tex">\mathrm{CQT}</annotation></semantics></math></span></span></foreignobject></g><g style="--ltx-stroke-color:#000000;--ltx-fill-color:#000000;" fill="#000000" stroke="#000000" transform="matrix(1.0 0.0 0.0 1.0 213.2 8.31)"><foreignobject style="--ltx-fo-width:1.29em;--ltx-fo-height:0.69em;--ltx-fo-depth:0.15em;font-size:10pt;" height="11.57" overflow="visible" transform="matrix(1 0 0 -1 0 9.49)" width="17.83"><span class="ltx_foreignobject_container"><span class="ltx_foreignobject_content"><math id="Sx2.F3.pic4.m5" class="ltx_Math" alttext="{\color[rgb]{0,0,0}\mathbf{X}_{\tau}}" display="inline" intent=":literal"><semantics><msub><mi>𝐗</mi><mi>τ</mi></msub><annotation encoding="application/x-tex">{\color[rgb]{0,0,0}\mathbf{X}_{\tau}}</annotation></semantics></math></span></span></foreignobject></g><g style="--ltx-fill-color:#FFFFFF;" fill="#FFFFFF"><path style="stroke:none" d="M 201.36 34.78 h 41.51 v 41.51 h -41.51 Z" /><clippath id="pgfcp19"><path d="M 201.36 34.78 h 41.51 v 41.51 h -41.51 Z" /></clippath><g clip-path="url(#pgfcp19)"><g fill-opacity="1" stroke-opacity="1" transform="matrix(1.0 0.0 0.0 1.0 194.26 34.78)"><foreignobject style="--ltx-fo-width:22.4em;--ltx-fo-height:16.69em;--ltx-fo-depth:0em;font-size:10pt;" height="231" overflow="visible" transform="matrix(1 0 0 -1 0 231)" width="310"><span class="ltx_foreignobject_container"><span class="ltx_foreignobject_content"><img src="arxiv-2402-09821v3--c077ddd96d98.figures/figure-16.webp" id="Sx2.F3.pic4.g3" class="ltx_graphics ltx_img_landscape" style="aspect-ratio:310/231;" width="310" height="231" alt="Refer to caption"></span></span></foreignobject></g></g><path style="fill:none" d="M 201.36 34.78 h 41.51 v 41.51 h -41.51 Z" /></g><g style="--ltx-stroke-color:#000000;--ltx-fill-color:#FFFFFF;" fill="#FFFFFF" stroke="#000000"><path d="M 238.12 -20.76 h 62.27 v 41.51 h -62.27 Z" /></g><g style="--ltx-stroke-color:#000000;--ltx-fill-color:#000000;" fill="#000000" stroke="#000000" transform="matrix(1.0 0.0 0.0 1.0 250.41 -9.53)"><g class="ltx_tikzmatrix" transform="matrix(1 0 0 -1 0 19.06)"><g class="ltx_tikzmatrix_row" transform="matrix(1 0 0 1 0 9.46)"><g class="ltx_tikzmatrix_col ltx_nopad_r" transform="matrix(1 0 0 -1 2.67 0)"><foreignobject style="--ltx-fo-width:2.34em;--ltx-fo-height:0.68em;--ltx-fo-depth:0em;font-size:10pt;" height="9.46" overflow="visible" transform="matrix(1 0 0 -1 0 9.46)" width="32.33"><span class="ltx_foreignobject_container"><span class="ltx_foreignobject_content">Score</span></span></foreignobject></g></g><g class="ltx_tikzmatrix_row" transform="matrix(1 0 0 1 0 19.07)"><g class="ltx_tikzmatrix_col ltx_nopad_r" transform="matrix(1 0 0 -1 0 0)"><foreignobject style="--ltx-fo-width:2.69em;--ltx-fo-height:0.69em;--ltx-fo-depth:0em;font-size:10pt;" height="9.61" overflow="visible" transform="matrix(1 0 0 -1 0 9.61)" width="37.28"><span class="ltx_foreignobject_container"><span class="ltx_foreignobject_content">Model</span></span></foreignobject></g></g></g></g><g style="--ltx-fill-color:#FFFFFF;" fill="#FFFFFF"><path d="M 316.68 -20.76 h 62.27 v 41.51 h -62.27 Z" /></g><g style="--ltx-stroke-color:#000000;--ltx-fill-color:#000000;" fill="#000000" stroke="#000000" transform="matrix(1.0 0.0 0.0 1.0 330.52 -3.38)"><foreignobject style="--ltx-fo-width:2.5em;--ltx-fo-height:0.68em;--ltx-fo-depth:0.19em;font-size:10pt;" height="12.15" overflow="visible" transform="matrix(1 0 0 -1 0 9.46)" width="34.59"><span class="ltx_foreignobject_container"><span class="ltx_foreignobject_content"><math id="Sx2.F3.pic4.m6" class="ltx_Math" alttext="\mathrm{iCQT}" display="inline" intent=":literal"><semantics><mi>iCQT</mi><annotation encoding="application/x-tex">\mathrm{iCQT}</annotation></semantics></math></span></span></foreignobject></g><g style="--ltx-stroke-color:#000000;--ltx-fill-color:#000000;" fill="#000000" stroke="#000000" transform="matrix(1.0 0.0 0.0 1.0 399.86 -3.46)"><foreignobject style="--ltx-fo-width:3.57em;--ltx-fo-height:0.75em;--ltx-fo-depth:0.25em;font-size:10pt;" height="13.84" overflow="visible" transform="matrix(1 0 0 -1 0 10.38)" width="49.39"><span class="ltx_foreignobject_container"><span class="ltx_foreignobject_content"><math id="Sx2.F3.pic4.m7" class="ltx_Math" alttext="\mathbf{s}_{\theta}(\mathbf{x}_{\tau},\tau)" display="inline" intent=":literal"><semantics><mrow><msub><mi>𝐬</mi><mi>θ</mi></msub><mo lspace="0em" rspace="0em">​</mo><mrow><mo stretchy="false">(</mo><msub><mi>𝐱</mi><mi>τ</mi></msub><mo>,</mo><mi>τ</mi><mo stretchy="false">)</mo></mrow></mrow><annotation encoding="application/x-tex">\mathbf{s}_{\theta}(\mathbf{x}_{\tau},\tau)</annotation></semantics></math></span></span></foreignobject></g><g stroke-dasharray="3.0pt,3.0pt" stroke-dashoffset="0.0pt"><path style="fill:none" d="M 46.86 0 L 58.67 0" /></g><path style="fill:none" d="M 83.06 0 L 98.25 0" /><g stroke-dasharray="none" stroke-dashoffset="0.0pt" stroke-linecap="round" stroke-linejoin="round" transform="matrix(1.0 0.0 0.0 1.0 98.53 0)"><path style="fill:none" d="M -2.88 3.32 C -2.35 1.33 -1.18 0.39 0 0 C -1.18 -0.39 -2.35 -1.33 -2.88 -3.32" /></g><path style="fill:none" d="M 107.38 -32.2 L 107.38 -9.13" /><g stroke-dasharray="none" stroke-dashoffset="0.0pt" stroke-linecap="round" stroke-linejoin="round" transform="matrix(0.0 1.0 -1.0 0.0 107.38 -8.86)"><path style="fill:none" d="M -2.88 3.32 C -2.35 1.33 -1.18 0.39 0 0 C -1.18 -0.39 -2.35 -1.33 -2.88 -3.32" /></g><g stroke-dasharray="3.0pt,3.0pt" stroke-dashoffset="0.0pt"><path style="fill:none" d="M 125.44 31.94 L 125.44 20.13" /></g><path style="fill:none" d="M 115.96 0 L 144.94 0" /><g stroke-dasharray="none" stroke-dashoffset="0.0pt" stroke-linecap="round" stroke-linejoin="round" transform="matrix(1.0 0.0 0.0 1.0 145.21 0)"><path style="fill:none" d="M -2.88 3.32 C -2.35 1.33 -1.18 0.39 0 0 C -1.18 -0.39 -2.35 -1.33 -2.88 -3.32" /></g><path style="fill:none" d="M 208.31 0 L 237.29 0" /><g stroke-dasharray="none" stroke-dashoffset="0.0pt" stroke-linecap="round" stroke-linejoin="round" transform="matrix(1.0 0.0 0.0 1.0 237.56 0)"><path style="fill:none" d="M -2.88 3.32 C -2.35 1.33 -1.18 0.39 0 0 C -1.18 -0.39 -2.35 -1.33 -2.88 -3.32" /></g><g stroke-dasharray="3.0pt,3.0pt" stroke-dashoffset="0.0pt"><path style="fill:none" d="M 222.11 34.5 L 222.11 22.69" /></g><path style="fill:none" d="M 300.66 0 L 315.85 0" /><g stroke-dasharray="none" stroke-dashoffset="0.0pt" stroke-linecap="round" stroke-linejoin="round" transform="matrix(1.0 0.0 0.0 1.0 316.13 0)"><path style="fill:none" d="M -2.88 3.32 C -2.35 1.33 -1.18 0.39 0 0 C -1.18 -0.39 -2.35 -1.33 -2.88 -3.32" /></g><path style="fill:none" d="M 379.23 0 L 394.42 0" /><g stroke-dasharray="none" stroke-dashoffset="0.0pt" stroke-linecap="round" stroke-linejoin="round" transform="matrix(1.0 0.0 0.0 1.0 394.7 0)"><path style="fill:none" d="M -2.88 3.32 C -2.35 1.33 -1.18 0.39 0 0 C -1.18 -0.39 -2.35 -1.33 -2.88 -3.32" /></g></g></svg>