<svg id="S2.F2.sf2.pic1" class="ltx_picture ltx_centering" height="87.17" overflow="visible" version="1.1" viewbox="0 0 87.17 87.17" width="87.17"><g style="--ltx-stroke-color:#000000;--ltx-fill-color:#000000;" fill="#000000" stroke="#000000" stroke-width="0.4pt" transform="translate(0,87.17) matrix(1 0 0 -1 0 0) translate(43.58,0) translate(0,43.58)"><g stroke-dasharray="3.0pt,3.0pt" stroke-dashoffset="0.0pt"><path style="fill:none" d="M 0 0 M 39.37 0 C 39.37 21.74 21.74 39.37 0 39.37 C -21.74 39.37 -39.37 21.74 -39.37 0 C -39.37 -21.74 -21.74 -39.37 0 -39.37 C 21.74 -39.37 39.37 -21.74 39.37 0 Z M 0 0" /></g><g style="--ltx-stroke-color:#CCCCCC;--ltx-fill-color:#CCCCCC;--ltx-fg-color:#CCCCCC;" color="#CCCCCC" fill="#CCCCCC" stroke="#CCCCCC"><path style="fill:none" d="M -43.31 0 L 43.31 0" /></g><g style="--ltx-stroke-color:#CCCCCC;--ltx-fill-color:#CCCCCC;--ltx-fg-color:#CCCCCC;" color="#CCCCCC" fill="#CCCCCC" stroke="#CCCCCC"><path style="fill:none" d="M 0 -43.31 L 0 43.31" /></g><path style="stroke:none" d="M 0 -19.69 M 2.77 -19.69 C 2.77 -18.16 1.53 -16.92 0 -16.92 C -1.53 -16.92 -2.77 -18.16 -2.77 -19.69 C -2.77 -21.21 -1.53 -22.45 0 -22.45 C 1.53 -22.45 2.77 -21.21 2.77 -19.69 Z M 0 -19.69" /><path style="stroke:none" d="M 13.94 -13.94 M 16.7 -13.94 C 16.7 -12.41 15.47 -11.17 13.94 -11.17 C 12.41 -11.17 11.17 -12.41 11.17 -13.94 C 11.17 -15.47 12.41 -16.7 13.94 -16.7 C 15.47 -16.7 16.7 -15.47 16.7 -13.94 Z M 13.94 -13.94" /><path style="stroke:none" d="M 19.69 0 M 22.45 0 C 22.45 1.53 21.21 2.77 19.69 2.77 C 18.16 2.77 16.92 1.53 16.92 0 C 16.92 -1.53 18.16 -2.77 19.69 -2.77 C 21.21 -2.77 22.45 -1.53 22.45 0 Z M 19.69 0" /><path style="stroke:none" d="M 13.94 13.94 M 16.7 13.94 C 16.7 15.47 15.47 16.7 13.94 16.7 C 12.41 16.7 11.17 15.47 11.17 13.94 C 11.17 12.41 12.41 11.17 13.94 11.17 C 15.47 11.17 16.7 12.41 16.7 13.94 Z M 13.94 13.94" /><path style="stroke:none" d="M 0 19.69 M 2.77 19.69 C 2.77 21.21 1.53 22.45 0 22.45 C -1.53 22.45 -2.77 21.21 -2.77 19.69 C -2.77 18.16 -1.53 16.92 0 16.92 C 1.53 16.92 2.77 18.16 2.77 19.69 Z M 0 19.69" /><g style="--ltx-stroke-color:#808080;--ltx-fill-color:#808080;--ltx-fg-color:#808080;" color="#808080" fill="#808080" stroke="#808080"><path style="fill:none" d="M -43.31 -43.31 M -43.31 -43.31 L -43.31 43.31 L 43.31 43.31 L 43.31 -43.31 Z M 43.31 43.31" /></g></g></svg>