<svg id="S4.F2.pic1" class="ltx_picture ltx_centering" height="153.39" overflow="visible" version="1.1" viewbox="0 0 199.56 153.39" width="199.56"><g style="--ltx-stroke-color:#000000;--ltx-fill-color:#000000;" fill="#000000" stroke="#000000" stroke-width="0.4pt" transform="translate(0,153.39) matrix(1 0 0 -1 0 0) translate(24.54,0) translate(0,56.14)"><path style="fill:none" d="M 38.58 -55.12 M 38.58 -49.58 L 38.58 66.12 C 38.58 69.18 41.06 71.65 44.12 71.65 L 104.7 71.65 C 107.76 71.65 110.24 69.18 110.24 66.12 L 110.24 -49.58 C 110.24 -52.64 107.76 -55.12 104.7 -55.12 L 44.12 -55.12 C 41.06 -55.12 38.58 -52.64 38.58 -49.58 Z M 110.24 71.65" /><g style="--ltx-stroke-color:#000000;--ltx-fill-color:#000000;" fill="#000000" stroke="#000000" transform="matrix(0.7 0.0 0.0 0.7 -21.31 39.09)"><foreignobject style="--ltx-fo-width:3.83em;--ltx-fo-height:0.75em;--ltx-fo-depth:0.29em;font-size:10pt;" height="14.34" overflow="visible" transform="matrix(1 0 0 -1 0 10.38)" width="53.01"><span class="ltx_foreignobject_container"><span class="ltx_foreignobject_content"><math id="S4.F2.pic1.m1" class="ltx_Math" alttext="{\bf g}_{m,n-1}[k]" display="inline" intent=":literal"><semantics><mrow><msub><mi>𝐠</mi><mrow><mi>m</mi><mo>,</mo><mrow><mi>n</mi><mo>−</mo><mn>1</mn></mrow></mrow></msub><mo lspace="0em" rspace="0em">​</mo><mrow><mo stretchy="false">[</mo><mi>k</mi><mo stretchy="false">]</mo></mrow></mrow><annotation encoding="application/x-tex">{\bf g}_{m,n-1}[k]</annotation></semantics></math></span></span></foreignobject></g><g style="--ltx-stroke-color:#000000;--ltx-fill-color:#000000;" fill="#000000" stroke="#000000" transform="matrix(0.7 0.0 0.0 0.7 36.45 85.13)"><foreignobject style="--ltx-fo-width:7.84em;--ltx-fo-height:0.92em;--ltx-fo-depth:0.29em;font-size:10pt;" height="16.64" overflow="visible" transform="matrix(1 0 0 -1 0 12.68)" width="108.44"><span class="ltx_foreignobject_container"><span class="ltx_foreignobject_content"><math id="S4.F2.pic1.m2" class="ltx_Math" alttext="\boldsymbol{\Lambda}_{nk}\triangleq diag(\lambda_{n,k,i})" display="inline" intent=":literal"><semantics><mrow><msub><mi>𝚲</mi><mrow><mi>n</mi><mo lspace="0em" rspace="0em">​</mo><mi>k</mi></mrow></msub><mo>≜</mo><mrow><mi>d</mi><mo lspace="0em" rspace="0em">​</mo><mi>i</mi><mo lspace="0em" rspace="0em">​</mo><mi>a</mi><mo lspace="0em" rspace="0em">​</mo><mi>g</mi><mo lspace="0em" rspace="0em">​</mo><mrow><mo stretchy="false">(</mo><msub><mi>λ</mi><mrow><mi>n</mi><mo>,</mo><mi>k</mi><mo>,</mo><mi>i</mi></mrow></msub><mo stretchy="false">)</mo></mrow></mrow></mrow><annotation encoding="application/x-tex">\boldsymbol{\Lambda}_{nk}\triangleq diag(\lambda_{n,k,i})</annotation></semantics></math></span></span></foreignobject></g><g style="--ltx-fill-color:#808080;" fill="#808080"><path d="M 96.03 -27.56 C 96.03 -15.62 86.35 -5.94 74.41 -5.94 C 62.47 -5.94 52.79 -15.62 52.79 -27.56 C 52.79 -39.5 62.47 -49.18 74.41 -49.18 C 86.35 -49.18 96.03 -39.5 96.03 -27.56 Z M 74.41 -27.56" /></g><g style="--ltx-stroke-color:#000000;--ltx-fill-color:#000000;" fill="#000000" stroke="#000000" transform="matrix(0.7 0.0 0.0 0.7 57.54 -29.98)"><foreignobject style="--ltx-fo-width:3.48em;--ltx-fo-height:0.75em;--ltx-fo-depth:0.25em;font-size:10pt;" height="13.84" overflow="visible" transform="matrix(1 0 0 -1 0 10.38)" width="48.2"><span class="ltx_foreignobject_container"><span class="ltx_foreignobject_content"><math id="S4.F2.pic1.m3" class="ltx_Math" alttext="x_{m}[n,k]" display="inline" intent=":literal"><semantics><mrow><msub><mi>x</mi><mi>m</mi></msub><mo lspace="0em" rspace="0em">​</mo><mrow><mo stretchy="false">[</mo><mrow><mi>n</mi><mo>,</mo><mi>k</mi></mrow><mo stretchy="false">]</mo></mrow></mrow><annotation encoding="application/x-tex">x_{m}[n,k]</annotation></semantics></math></span></span></foreignobject></g><path style="fill:none" d="M 94.7 41.34 C 94.7 52.54 85.61 61.63 74.41 61.63 C 63.2 61.63 54.12 52.54 54.12 41.34 C 54.12 30.13 63.2 21.05 74.41 21.05 C 85.61 21.05 94.7 30.13 94.7 41.34 Z M 74.41 41.34" /><g style="--ltx-stroke-color:#000000;--ltx-fill-color:#000000;" fill="#000000" stroke="#000000" transform="matrix(0.7 0.0 0.0 0.7 59.09 39.09)"><foreignobject style="--ltx-fo-width:3.16em;--ltx-fo-height:0.75em;--ltx-fo-depth:0.29em;font-size:10pt;" height="14.34" overflow="visible" transform="matrix(1 0 0 -1 0 10.38)" width="43.77"><span class="ltx_foreignobject_container"><span class="ltx_foreignobject_content"><math id="S4.F2.pic1.m4" class="ltx_Math" alttext="{\bf g}_{m,n}[k]" display="inline" intent=":literal"><semantics><mrow><msub><mi>𝐠</mi><mrow><mi>m</mi><mo>,</mo><mi>n</mi></mrow></msub><mo lspace="0em" rspace="0em">​</mo><mrow><mo stretchy="false">[</mo><mi>k</mi><mo stretchy="false">]</mo></mrow></mrow><annotation encoding="application/x-tex">{\bf g}_{m,n}[k]</annotation></semantics></math></span></span></foreignobject></g><path style="fill:none" d="M 74.41 78.94 L 74.41 62.46" /><g stroke-dasharray="none" stroke-dashoffset="0.0pt" stroke-linecap="round" stroke-linejoin="round" stroke-width="0.32pt" transform="matrix(-0.00002 -1.0 1.0 -0.00002 74.41 62.46)"><path style="fill:none" d="M -1.66 2.21 C -1.52 1.38 0 0.14 0.42 0 C 0 -0.14 -1.52 -1.38 -1.66 -2.21" /></g><path style="fill:none" d="M 74.41 20.85 L 74.41 -5.11" /><g stroke-dasharray="none" stroke-dashoffset="0.0pt" stroke-linecap="round" stroke-linejoin="round" stroke-width="0.32pt" transform="matrix(0.00002 -1.0 1.0 0.00002 74.41 -5.11)"><path style="fill:none" d="M -1.66 2.21 C -1.52 1.38 0 0.14 0.42 0 C 0 -0.14 -1.52 -1.38 -1.66 -2.21" /></g><path style="fill:none" d="M 19.22 41.34 L 53.29 41.34" /><g stroke-dasharray="none" stroke-dashoffset="0.0pt" stroke-linecap="round" stroke-linejoin="round" stroke-width="0.32pt" transform="matrix(1.0 0.0 0.0 1.0 53.29 41.34)"><path style="fill:none" d="M -1.66 2.21 C -1.52 1.38 0 0.14 0.42 0 C 0 -0.14 -1.52 -1.38 -1.66 -2.21" /></g><g style="--ltx-stroke-color:#000000;--ltx-fill-color:#000000;" fill="#000000" stroke="#000000" transform="matrix(0.7 0.0 0.0 0.7 -1.77 7.12)"><foreignobject style="--ltx-fo-width:1.5em;--ltx-fo-height:0.43em;--ltx-fo-depth:0.19em;font-size:10pt;" height="8.65" overflow="visible" transform="matrix(1 0 0 -1 0 5.96)" width="20.81"><span class="ltx_foreignobject_container"><span class="ltx_foreignobject_content"><math id="S4.F2.pic1.m5" class="ltx_Math" alttext="\gamma_{nk}" display="inline" intent=":literal"><semantics><msub><mi>γ</mi><mrow><mi>n</mi><mo lspace="0em" rspace="0em">​</mo><mi>k</mi></mrow></msub><annotation encoding="application/x-tex">\gamma_{nk}</annotation></semantics></math></span></span></foreignobject></g><path style="fill:none" d="M 5.51 1.82 L 5.51 -27.56 L 51.96 -27.56" /><g stroke-dasharray="none" stroke-dashoffset="0.0pt" stroke-linecap="round" stroke-linejoin="round" stroke-width="0.32pt" transform="matrix(1.0 0.0 0.0 1.0 51.96 -27.56)"><path style="fill:none" d="M -1.66 2.21 C -1.52 1.38 0 0.14 0.42 0 C 0 -0.14 -1.52 -1.38 -1.66 -2.21" /></g><g style="--ltx-stroke-color:#000000;--ltx-fill-color:#000000;" fill="#000000" stroke="#000000" transform="matrix(0.7 0.0 0.0 0.7 131.35 39.09)"><foreignobject style="--ltx-fo-width:4.18em;--ltx-fo-height:0.75em;--ltx-fo-depth:0.29em;font-size:10pt;" height="14.34" overflow="visible" transform="matrix(1 0 0 -1 0 10.38)" width="57.78"><span class="ltx_foreignobject_container"><span class="ltx_foreignobject_content"><math id="S4.F2.pic1.m6" class="ltx_Math" alttext="{\bf g}_{m,n+1}[k]" display="inline" intent=":literal"><semantics><mrow><msub><mi>𝐠</mi><mrow><mi>m</mi><mo>,</mo><mrow><mi>n</mi><mo>+</mo><mn>1</mn></mrow></mrow></msub><mo lspace="0em" rspace="0em">​</mo><mrow><mo stretchy="false">[</mo><mi>k</mi><mo stretchy="false">]</mo></mrow></mrow><annotation encoding="application/x-tex">{\bf g}_{m,n+1}[k]</annotation></semantics></math></span></span></foreignobject></g><path style="fill:none" d="M 94.89 41.34 L 127.29 41.34" /><g stroke-dasharray="none" stroke-dashoffset="0.0pt" stroke-linecap="round" stroke-linejoin="round" stroke-width="0.32pt" transform="matrix(1.0 0.0 0.0 1.0 127.29 41.34)"><path style="fill:none" d="M -1.66 2.21 C -1.52 1.38 0 0.14 0.42 0 C 0 -0.14 -1.52 -1.38 -1.66 -2.21" /></g><g style="--ltx-stroke-color:#000000;--ltx-fill-color:#000000;" fill="#000000" stroke="#000000" transform="matrix(0.7 0.0 0.0 0.7 93.99 -52.92)"><foreignobject style="--ltx-fo-width:1.08em;--ltx-fo-height:0.68em;--ltx-fo-depth:0em;font-size:10pt;" height="9.46" overflow="visible" transform="matrix(1 0 0 -1 0 9.46)" width="14.93"><span class="ltx_foreignobject_container"><span class="ltx_foreignobject_content"><math id="S4.F2.pic1.m7" class="ltx_Math" alttext="M" display="inline" intent=":literal"><semantics><mi>M</mi><annotation encoding="application/x-tex">M</annotation></semantics></math></span></span></foreignobject></g></g></svg>