<svg id="S1.F4.pic1.pic2" class="ltx_picture" height="42.25" overflow="visible" version="1.1" viewbox="0 0 62.82 42.25" width="62.82"><g style="--ltx-stroke-color:#000000;--ltx-fill-color:#000000;" fill="#000000" stroke="#000000" stroke-width="0.4pt" transform="translate(0,42.25) matrix(1 0 0 -1 0 0) translate(0.28,0) translate(0,4.61) matrix(1.0 0.0 0.0 1.0 -0.28 -4.61)"><g class="ltx_nestedsvg" transform="matrix(1 0 0 1 0 0) translate(0.28,0) translate(0,4.61)"><g style="--ltx-stroke-color:#808080;--ltx-fill-color:#808080;--ltx-fg-color:#808080;" color="#808080" fill="#808080" stroke="#808080" stroke-width="0.2pt"><path style="fill:none" d="M 53.37 -2.95 L 53.37 2.95" /></g><g style="--ltx-stroke-color:#000000;--ltx-fill-color:#000000;" fill="#000000" stroke="#000000" stroke-width="0.4pt"><path style="fill:none" d="M 0 0 L 59.5 0" /><g transform="matrix(1.0 0.0 0.0 1.0 59.5 0)"><path style="stroke:none" d="M 2.77 0 L -1.66 2.21 L 0 0 L -1.66 -2.21" /></g><path style="fill:none" d="M 8.9 0 L 8.9 34.59" /><g transform="matrix(0.0 1.0 -1.0 0.0 8.9 34.59)"><path style="stroke:none" d="M 2.77 0 L -1.66 2.21 L 0 0 L -1.66 -2.21" /></g><clippath id="pgfcp12"><path d="M 0 0 L 62.27 0 L 62.27 37.36 L 0 37.36 Z" /></clippath><g clip-path="url(#pgfcp12)"><g style="--ltx-fill-color:#BFBFBF;" fill="#BFBFBF" stroke-width="1.0pt"><path d="M 8.85 0 L 8.9 9.96 L 53.37 9.96 L 53.42 0" /></g><g></g></g></g></g></g></svg>