<svg id="Sx5.F5.pic4" class="ltx_picture ltx_centering ltx_figure_panel" height="145.21" overflow="visible" version="1.1" viewbox="0 0 155.08 145.21" width="155.08"><g style="--ltx-stroke-color:#000000;--ltx-fill-color:#000000;" fill="#000000" stroke="#000000" stroke-width="0.4pt" transform="translate(0,145.21) matrix(1 0 0 -1 0 0) translate(33.08,0) translate(0,28.57) matrix(0.67 0.0 0.0 0.67 -33.07 -28.57)"><g style="--ltx-stroke-color:#000000;--ltx-fill-color:#000000;" class="ltx_nestedsvg" fill="#000000" stroke="#000000" stroke-width="0.4pt" transform="matrix(1 0 0 1 0 0) translate(64.52,0) translate(0,55.5)"><clippath id="pgfcp21"><path d="M -15.15 -209.71 L 166.67 -209.71 L 166.67 338.27 L -15.15 338.27" /></clippath><g clip-path="url(#pgfcp21)"><g style="--ltx-stroke-color:#BFBFBF;--ltx-fill-color:#BFBFBF;--ltx-fg-color:#BFBFBF;" color="#BFBFBF" fill="#BFBFBF" stroke="#BFBFBF" stroke-width="0.4pt"><path style="fill:none" d="M 15.6 -12.86 L 15.6 141.41 M 56.11 -12.86 L 56.11 141.41 M 96.62 -12.86 L 96.62 141.41 M 137.14 -12.86 L 137.14 141.41" /></g><g></g></g><clippath id="pgfcp22"><path d="M -211.99 -12.86 L -211.99 141.41 L 363.51 141.41 L 363.51 -12.86" /></clippath><g clip-path="url(#pgfcp22)"><g style="--ltx-stroke-color:#BFBFBF;--ltx-fill-color:#BFBFBF;--ltx-fg-color:#BFBFBF;" color="#BFBFBF" fill="#BFBFBF" stroke="#BFBFBF" stroke-width="0.4pt"><path style="fill:none" d="M -15.15 23.37 L 166.67 23.37 M -15.15 70.12 L 166.67 70.12 M -15.15 116.87 L 166.67 116.87" /></g><g></g></g><clippath id="pgfcp23"><path d="M -15.15 -209.71 L 166.67 -209.71 L 166.67 338.27 L -15.15 338.27" /></clippath><g clip-path="url(#pgfcp23)"><g style="--ltx-stroke-color:#808080;--ltx-fill-color:#808080;--ltx-fg-color:#808080;" color="#808080" fill="#808080" stroke="#808080" stroke-width="0.2pt"><path style="fill:none" d="M 15.6 -12.86 L 15.6 -6.95 M 56.11 -12.86 L 56.11 -6.95 M 96.62 -12.86 L 96.62 -6.95 M 137.14 -12.86 L 137.14 -6.95 M 15.6 141.41 L 15.6 135.51 M 56.11 141.41 L 56.11 135.51 M 96.62 141.41 L 96.62 135.51 M 137.14 141.41 L 137.14 135.51" /></g><g></g></g><clippath id="pgfcp24"><path d="M -211.99 -12.86 L -211.99 141.41 L 363.51 141.41 L 363.51 -12.86" /></clippath><g clip-path="url(#pgfcp24)"><g style="--ltx-stroke-color:#808080;--ltx-fill-color:#808080;--ltx-fg-color:#808080;" color="#808080" fill="#808080" stroke="#808080" stroke-width="0.2pt"><path style="fill:none" d="M -15.15 23.37 L -9.25 23.37 M -15.15 70.12 L -9.25 70.12 M -15.15 116.87 L -9.25 116.87 M 166.67 23.37 L 160.77 23.37 M 166.67 70.12 L 160.77 70.12 M 166.67 116.87 L 160.77 116.87" /></g><g></g></g><path style="fill:none" d="M -15.15 -12.86 L -15.15 141.41 L 166.67 141.41 L 166.67 -12.86 L -15.15 -12.86 Z" /><g style="--ltx-stroke-color:#000000;--ltx-fill-color:#000000;" fill="#000000" stroke="#000000" transform="matrix(1.0 0.0 0.0 1.0 12.14 -26.66)"><foreignobject style="--ltx-fo-width:0.5em;--ltx-fo-height:0.64em;--ltx-fo-depth:0em;font-size:10pt;" height="8.92" overflow="visible" transform="matrix(1 0 0 -1 0 8.92)" width="6.92"><span class="ltx_foreignobject_container"><span class="ltx_foreignobject_content"><math id="Sx5.F5.pic4.m1" class="ltx_Math" alttext="2" display="inline" intent=":literal"><semantics><mn>2</mn><annotation encoding="application/x-tex">2</annotation></semantics></math></span></span></foreignobject></g><g style="--ltx-stroke-color:#000000;--ltx-fill-color:#000000;" fill="#000000" stroke="#000000" transform="matrix(1.0 0.0 0.0 1.0 52.65 -26.66)"><foreignobject style="--ltx-fo-width:0.5em;--ltx-fo-height:0.64em;--ltx-fo-depth:0em;font-size:10pt;" height="8.92" overflow="visible" transform="matrix(1 0 0 -1 0 8.92)" width="6.92"><span class="ltx_foreignobject_container"><span class="ltx_foreignobject_content"><math id="Sx5.F5.pic4.m2" class="ltx_Math" alttext="4" display="inline" intent=":literal"><semantics><mn>4</mn><annotation encoding="application/x-tex">4</annotation></semantics></math></span></span></foreignobject></g><g style="--ltx-stroke-color:#000000;--ltx-fill-color:#000000;" fill="#000000" stroke="#000000" transform="matrix(1.0 0.0 0.0 1.0 93.16 -26.66)"><foreignobject style="--ltx-fo-width:0.5em;--ltx-fo-height:0.64em;--ltx-fo-depth:0em;font-size:10pt;" height="8.92" overflow="visible" transform="matrix(1 0 0 -1 0 8.92)" width="6.92"><span class="ltx_foreignobject_container"><span class="ltx_foreignobject_content"><math id="Sx5.F5.pic4.m3" class="ltx_Math" alttext="6" display="inline" intent=":literal"><semantics><mn>6</mn><annotation encoding="application/x-tex">6</annotation></semantics></math></span></span></foreignobject></g><g style="--ltx-stroke-color:#000000;--ltx-fill-color:#000000;" fill="#000000" stroke="#000000" transform="matrix(1.0 0.0 0.0 1.0 133.68 -26.66)"><foreignobject style="--ltx-fo-width:0.5em;--ltx-fo-height:0.64em;--ltx-fo-depth:0em;font-size:10pt;" height="8.92" overflow="visible" transform="matrix(1 0 0 -1 0 8.92)" width="6.92"><span class="ltx_foreignobject_container"><span class="ltx_foreignobject_content"><math id="Sx5.F5.pic4.m4" class="ltx_Math" alttext="8" display="inline" intent=":literal"><semantics><mn>8</mn><annotation encoding="application/x-tex">8</annotation></semantics></math></span></span></foreignobject></g><g style="--ltx-stroke-color:#000000;--ltx-fill-color:#000000;" fill="#000000" stroke="#000000" transform="matrix(1.0 0.0 0.0 1.0 -40.8 18.92)"><foreignobject style="--ltx-fo-width:1.5em;--ltx-fo-height:0.64em;--ltx-fo-depth:0em;font-size:10pt;" height="8.92" overflow="visible" transform="matrix(1 0 0 -1 0 8.92)" width="20.76"><span class="ltx_foreignobject_container"><span class="ltx_foreignobject_content"><math id="Sx5.F5.pic4.m5" class="ltx_Math" alttext="141" display="inline" intent=":literal"><semantics><mn>141</mn><annotation encoding="application/x-tex">141</annotation></semantics></math></span></span></foreignobject></g><g style="--ltx-stroke-color:#000000;--ltx-fill-color:#000000;" fill="#000000" stroke="#000000" transform="matrix(1.0 0.0 0.0 1.0 -40.8 65.66)"><foreignobject style="--ltx-fo-width:1.5em;--ltx-fo-height:0.64em;--ltx-fo-depth:0em;font-size:10pt;" height="8.92" overflow="visible" transform="matrix(1 0 0 -1 0 8.92)" width="20.76"><span class="ltx_foreignobject_container"><span class="ltx_foreignobject_content"><math id="Sx5.F5.pic4.m6" class="ltx_Math" alttext="142" display="inline" intent=":literal"><semantics><mn>142</mn><annotation encoding="application/x-tex">142</annotation></semantics></math></span></span></foreignobject></g><g style="--ltx-stroke-color:#000000;--ltx-fill-color:#000000;" fill="#000000" stroke="#000000" transform="matrix(1.0 0.0 0.0 1.0 -40.8 112.41)"><foreignobject style="--ltx-fo-width:1.5em;--ltx-fo-height:0.64em;--ltx-fo-depth:0em;font-size:10pt;" height="8.92" overflow="visible" transform="matrix(1 0 0 -1 0 8.92)" width="20.76"><span class="ltx_foreignobject_container"><span class="ltx_foreignobject_content"><math id="Sx5.F5.pic4.m7" class="ltx_Math" alttext="143" display="inline" intent=":literal"><semantics><mn>143</mn><annotation encoding="application/x-tex">143</annotation></semantics></math></span></span></foreignobject></g><clippath id="pgfcp25"><path d="M -15.15 -12.86 L 166.67 -12.86 L 166.67 141.41 L -15.15 141.41 Z" /></clippath><g clip-path="url(#pgfcp25)"><g style="--ltx-stroke-color:#000000;--ltx-fill-color:#000000;--ltx-fg-color:#000000;" color="#000000" fill="#000000" stroke="#000000" stroke-dasharray="1.0pt,1.0pt" stroke-dashoffset="0.0pt" stroke-width="1.0pt"><path style="fill:none" d="M 33.83 118.74 L 60.16 108.45 L 86.09 102.84 L 138.35 93.96" /></g><g></g><g style="--ltx-stroke-color:#000000;--ltx-fill-color:#000000;--ltx-fg-color:#000000;" color="#000000" fill="#000000" stroke="#000000" transform="matrix(1.0 0.0 0.0 1.0 92.95 103.06)"><foreignobject style="--ltx-fg-color:#000000;--ltx-fo-width:4.92em;--ltx-fo-height:0.68em;--ltx-fo-depth:0em;font-size:10pt;" color="#000000" height="9.46" overflow="visible" transform="matrix(1 0 0 -1 0 9.46)" width="68.11"><span class="ltx_foreignobject_container"><span class="ltx_foreignobject_content"><span id="Sx5.F5.pic4.1" class="ltx_text" style="--ltx-fg-color:#000000;">DenseRNet</span></span></span></foreignobject></g><g></g><g style="--ltx-stroke-color:#008000;--ltx-fill-color:#008000;--ltx-fg-color:#008000;" color="#008000" fill="#008000" stroke="#008000" stroke-dasharray="3.0pt,1.0pt,0.4pt,1.0pt" stroke-dashoffset="0.0pt" stroke-width="1.0pt"><path style="fill:none" d="M 20.86 128.56 L 53.48 107.52 L 94.6 94.43 L 144.02 79.94" /></g><g></g><g style="--ltx-stroke-color:#008000;--ltx-fill-color:#008000;--ltx-fg-color:#008000;" color="#008000" fill="#008000" stroke="#008000" transform="matrix(1.0 0.0 0.0 1.0 98.05 66.53)"><foreignobject style="--ltx-fg-color:#000000;--ltx-fo-width:4.19em;--ltx-fo-height:0.68em;--ltx-fo-depth:0em;font-size:10pt;" color="#000000" height="9.46" overflow="visible" transform="matrix(1 0 0 -1 0 9.46)" width="57.92"><span class="ltx_foreignobject_container"><span class="ltx_foreignobject_content"><span id="Sx5.F5.pic4.2" class="ltx_text" style="--ltx-fg-color:#008000;">DenseNet</span></span></span></foreignobject></g><g></g><g style="--ltx-stroke-color:#0000FF;--ltx-fill-color:#0000FF;--ltx-fg-color:#0000FF;" color="#0000FF" fill="#0000FF" stroke="#0000FF" stroke-dasharray="3.0pt,2.0pt" stroke-dashoffset="0.0pt" stroke-width="1.0pt"><path style="fill:none" d="M 25.32 79 L 67.45 61.71 L 108.57 43.01 L 151.52 28.52" /></g><g></g><g stroke-dasharray="3.0pt,3.0pt" stroke-dashoffset="0.0pt" stroke-width="1.2pt"><path style="fill:none" d="M 151.52 28.52 L 20.17 28.52" /></g><g stroke-dasharray="none" stroke-dashoffset="0.0pt" stroke-linecap="round" stroke-linejoin="round" stroke-width="0.96pt" transform="matrix(-1.0 0.0 0.0 -1.0 20.17 28.52)"><path style="fill:none" d="M -2.66 3.54 C -2.44 2.21 0 0.22 0.66 0 C 0 -0.22 -2.44 -2.21 -2.66 -3.54" /></g><g></g><g style="--ltx-stroke-color:#0000FF;--ltx-fill-color:#0000FF;--ltx-fg-color:#0000FF;" color="#0000FF" fill="#0000FF" stroke="#0000FF" transform="matrix(1.0 0.0 0.0 1.0 30.61 77.08)"><foreignobject style="--ltx-fg-color:#000000;--ltx-fo-width:3.16em;--ltx-fo-height:0.68em;--ltx-fo-depth:0em;font-size:10pt;" color="#000000" height="9.46" overflow="visible" transform="matrix(1 0 0 -1 0 9.46)" width="43.7"><span class="ltx_foreignobject_container"><span class="ltx_foreignobject_content"><span id="Sx5.F5.pic4.3" class="ltx_text" style="--ltx-fg-color:#0000FF;">ResNet</span></span></span></foreignobject></g><g></g><g style="--ltx-stroke-color:#000000;--ltx-fill-color:#000000;--ltx-fg-color:#000000;" color="#000000" fill="#000000" stroke="#000000" transform="matrix(1.0 0.0 0.0 1.0 24.54 30.37)"><foreignobject style="--ltx-fg-color:#000000;--ltx-fo-width:7.26em;--ltx-fo-height:0.6em;--ltx-fo-depth:0em;font-size:11.5pt;" color="#000000" height="9.61" overflow="visible" transform="matrix(1 0 0 -1 0 9.61)" width="115.51"><span class="ltx_foreignobject_container"><span class="ltx_foreignobject_content"><math id="Sx5.F5.pic4.m8" class="ltx_Math" alttext="\approx" display="inline" intent=":literal"><semantics><mo style="--ltx-fg-color:#000000;" mathcolor="#000000">≈</mo><annotation encoding="application/x-tex">\approx</annotation></semantics></math><span id="Sx5.F5.pic4.4" class="ltx_text ltx_font_bold" style="--ltx-fg-color:#000000;">4<math id="Sx5.F5.pic4.m9" class="ltx_Math" alttext="\boldsymbol{\times}" display="inline" intent=":literal"><semantics><mo style="--ltx-fg-color:#000000;" class="ltx_mathvariant_bold" mathcolor="#000000" mathvariant="bold">×</mo><annotation encoding="application/x-tex">\boldsymbol{\times}</annotation></semantics></math> fewer FLOPs</span></span></span></foreignobject></g><g></g><g style="--ltx-stroke-color:#FF0000;--ltx-fill-color:#FF0000;--ltx-fg-color:#FF0000;" color="#FF0000" fill="#FF0000" stroke="#FF0000" stroke-width="1.0pt"><path style="fill:none" d="M 0 76.67 L 18.84 24.78 L 33.83 9.35 L 50.03 0" /></g><g></g><g style="--ltx-stroke-color:#FF0000;--ltx-fill-color:#FF0000;--ltx-fg-color:#FF0000;" color="#FF0000" fill="#FF0000" stroke="#FF0000" transform="matrix(1.0 0.0 0.0 1.0 54.92 -2.86)"><foreignobject style="--ltx-fg-color:#000000;--ltx-fo-width:4.04em;--ltx-fo-height:0.68em;--ltx-fo-depth:0em;font-size:10pt;" color="#000000" height="9.46" overflow="visible" transform="matrix(1 0 0 -1 0 9.46)" width="55.93"><span class="ltx_foreignobject_container"><span class="ltx_foreignobject_content"><span id="Sx5.F5.pic4.5" class="ltx_text" style="--ltx-fg-color:#FF0000;">RDL-Net</span></span></span></foreignobject></g><g></g></g><g style="--ltx-stroke-color:#000000;--ltx-fill-color:#000000;--ltx-fg-color:#000000;" color="#000000" fill="#000000" stroke="#000000" stroke-dasharray="none" stroke-dashoffset="0.0pt" stroke-width="1.0pt"><path d="M 33.83 121.51 L 35.9 118.74 L 33.83 115.97 L 31.75 118.74 Z" /><path d="M 60.16 111.22 L 62.24 108.45 L 60.16 105.69 L 58.09 108.45 Z" /><path d="M 86.09 105.61 L 88.17 102.84 L 86.09 100.08 L 84.01 102.84 Z" /><path d="M 138.35 96.73 L 140.43 93.96 L 138.35 91.2 L 136.28 93.96 Z" /></g><g style="--ltx-stroke-color:#008000;--ltx-fill-color:#008000;--ltx-fg-color:#008000;" color="#008000" fill="#008000" stroke="#008000" stroke-dasharray="none" stroke-dashoffset="0.0pt" stroke-width="1.0pt"><path d="M 23.63 128.56 C 23.63 130.08 22.39 131.32 20.86 131.32 C 19.34 131.32 18.1 130.08 18.1 128.56 C 18.1 127.03 19.34 125.79 20.86 125.79 C 22.39 125.79 23.63 127.03 23.63 128.56 Z M 20.86 128.56" /><path d="M 56.24 107.52 C 56.24 109.05 55.01 110.29 53.48 110.29 C 51.95 110.29 50.71 109.05 50.71 107.52 C 50.71 105.99 51.95 104.75 53.48 104.75 C 55.01 104.75 56.24 105.99 56.24 107.52 Z M 53.48 107.52" /><path d="M 97.36 94.43 C 97.36 95.96 96.13 97.2 94.6 97.2 C 93.07 97.2 91.83 95.96 91.83 94.43 C 91.83 92.9 93.07 91.66 94.6 91.66 C 96.13 91.66 97.36 92.9 97.36 94.43 Z M 94.6 94.43" /><path d="M 146.79 79.94 C 146.79 81.47 145.55 82.71 144.02 82.71 C 142.49 82.71 141.26 81.47 141.26 79.94 C 141.26 78.41 142.49 77.17 144.02 77.17 C 145.55 77.17 146.79 78.41 146.79 79.94 Z M 144.02 79.94" /></g><g style="--ltx-stroke-color:#0000FF;--ltx-fill-color:#0000FF;--ltx-fg-color:#0000FF;" color="#0000FF" fill="#0000FF" stroke="#0000FF" stroke-dasharray="none" stroke-dashoffset="0.0pt" stroke-width="1.0pt"><path d="M 22.55 76.24 h 5.53 v 5.53 h -5.53 Z" /><path d="M 64.69 58.94 h 5.53 v 5.53 h -5.53 Z" /><path d="M 105.81 40.24 h 5.53 v 5.53 h -5.53 Z" /><path d="M 148.75 25.75 h 5.53 v 5.53 h -5.53 Z" /></g><g style="--ltx-stroke-color:#FF0000;--ltx-fill-color:#FF0000;--ltx-fg-color:#FF0000;" color="#FF0000" fill="#FF0000" stroke="#FF0000" stroke-dasharray="none" stroke-dashoffset="0.0pt" stroke-width="1.0pt"><path d="M 0 79.43 L 2.4 75.28 L -2.4 75.28 Z" /><path d="M 18.84 27.54 L 21.24 23.39 L 16.44 23.39 Z" /><path d="M 33.83 12.12 L 36.22 7.97 L 31.43 7.97 Z" /><path d="M 50.03 2.77 L 52.43 -1.38 L 47.64 -1.38 Z" /></g><g style="--ltx-stroke-color:#000000;--ltx-fill-color:#000000;" fill="#000000" stroke="#000000" transform="matrix(1.0 0.0 0.0 1.0 21.4 -47.43)"><foreignobject style="--ltx-fo-width:5.41em;--ltx-fo-height:0.75em;--ltx-fo-depth:0.25em;font-size:10pt;" height="13.84" overflow="visible" transform="matrix(1 0 0 -1 0 10.38)" width="74.84"><span class="ltx_foreignobject_container"><span class="ltx_foreignobject_content"><span id="Sx5.F5.pic4.6" class="ltx_text"># FLOPs (<math id="Sx5.F5.pic4.m10" class="ltx_Math" alttext="\times 10^{6}" display="inline" intent=":literal"><semantics><mrow><mphantom></mphantom><mo lspace="0.222em" rspace="0.222em">×</mo><msup><mn>10</mn><mn>6</mn></msup></mrow><annotation encoding="application/x-tex">\times 10^{6}</annotation></semantics></math>)</span></span></span></foreignobject></g><g style="--ltx-stroke-color:#000000;--ltx-fill-color:#000000;" fill="#000000" stroke="#000000" transform="matrix(0.0 1.0 -1.0 0.0 -50.3 -5.68)"><foreignobject style="--ltx-fo-width:10.22em;--ltx-fo-height:0.69em;--ltx-fo-depth:0em;font-size:10pt;" height="9.61" overflow="visible" transform="matrix(1 0 0 -1 0 9.61)" width="141.45"><span class="ltx_foreignobject_container"><span class="ltx_foreignobject_content"><span id="Sx5.F5.pic4.7" class="ltx_text">Lowest validation error</span></span></span></foreignobject></g><g style="--ltx-stroke-color:#000000;--ltx-fill-color:#000000;" fill="#000000" stroke="#000000" transform="matrix(1.0 0.0 0.0 1.0 66.53 146.25)"><foreignobject style="--ltx-fo-width:1.33em;--ltx-fo-height:0.75em;--ltx-fo-depth:0.25em;font-size:10pt;" height="13.84" overflow="visible" transform="matrix(1 0 0 -1 0 10.38)" width="18.45"><span class="ltx_foreignobject_container"><span class="ltx_foreignobject_content"><span id="Sx5.F5.pic4.8" class="ltx_text">(d)</span></span></span></foreignobject></g></g></g></svg>