<svg id="S1.F1.pic1.pic4" class="ltx_picture" height="8.02" overflow="visible" version="1.1" viewbox="0 0 9.31 8.02" width="9.31"><g style="--ltx-stroke-color:#4D4D4D;--ltx-fill-color:#4D4D4D;" fill="#4D4D4D" stroke="#4D4D4D" stroke-width="0.4pt" transform="translate(0,8.02) matrix(1 0 0 -1 0 0) translate(0,8.02)"><g style="--ltx-stroke-color:#2F6FA3;--ltx-fill-color:#E6EEF4;" fill="#E6EEF4" stroke="#2F6FA3"><path d="M 7.65 -0.28 L 1.66 -0.28 C 0.9 -0.28 0.28 -0.9 0.28 -1.66 L 0.28 -6.36 C 0.28 -7.13 0.9 -7.75 1.66 -7.75 L 7.65 -7.75 C 8.41 -7.75 9.03 -7.13 9.03 -6.36 L 9.03 -1.66 C 9.03 -0.9 8.41 -0.28 7.65 -0.28 Z M 0.28 -7.75" /></g><g style="--ltx-stroke-color:#1E486A;--ltx-fill-color:#1E486A;" fill="#1E486A" stroke="#1E486A" transform="matrix(1.0 0.0 0.0 1.0 1.66 -6.36)"><foreignobject style="--ltx-fg-color:#1E486A;--ltx-fo-width:0.64em;--ltx-fo-height:0.5em;--ltx-fo-depth:0em;font-size:6.81pt;" color="#1E486A" height="4.7" overflow="visible" transform="matrix(1 0 0 -1 0 4.7)" width="5.99"><span class="ltx_foreignobject_container"><span class="ltx_foreignobject_content"><span id="S1.F1.pic1.pic4.1" class="ltx_text" style="font-size:50%;">F</span></span></span></foreignobject></g></g></svg>