<svg id="S2.F2.pic1" class="ltx_picture ltx_centering" height="271.53" overflow="visible" version="1.1" viewbox="0 0 326.35 271.53" width="326.35"><g style="--ltx-stroke-color:#000000;--ltx-fill-color:#000000;" fill="#000000" stroke="#000000" stroke-width="0.4pt" transform="translate(0,271.53) matrix(1 0 0 -1 0 0) translate(59.28,0) translate(0,204.16)"><path style="fill:none" d="M -27.39 -38.32 h 54.77 v 21.52 h -54.77 Z" /><g style="--ltx-stroke-color:#000000;--ltx-fill-color:#000000;" fill="#000000" stroke="#000000" transform="matrix(1.0 0.0 0.0 1.0 -22.77 -31.02)"><foreignobject style="--ltx-fo-width:3.29em;--ltx-fo-height:0.69em;--ltx-fo-depth:0.19em;font-size:10pt;" height="12.3" overflow="visible" transform="matrix(1 0 0 -1 0 9.61)" width="45.55"><span class="ltx_foreignobject_container"><span class="ltx_foreignobject_content"><span id="S2.F2.pic1.1" class="ltx_text ltx_markedasmath">Pooling</span></span></span></foreignobject></g><path style="fill:none" d="M -40.88 -76.35 h 81.75 v 18.83 h -81.75 Z" /><g style="--ltx-stroke-color:#000000;--ltx-fill-color:#000000;" fill="#000000" stroke="#000000" transform="matrix(1.0 0.0 0.0 1.0 -36.26 -71.73)"><foreignobject style="--ltx-fo-width:5.24em;--ltx-fo-height:0.69em;--ltx-fo-depth:0em;font-size:10pt;" height="9.61" overflow="visible" transform="matrix(1 0 0 -1 0 9.61)" width="72.53"><span class="ltx_foreignobject_container"><span class="ltx_foreignobject_content"><span id="S2.F2.pic1.2" class="ltx_text ltx_markedasmath">Dense-block</span></span></span></foreignobject></g><path style="fill:none" d="M -14.8 -115.64 h 29.59 v 18.68 h -29.59 Z" /><g style="--ltx-stroke-color:#000000;--ltx-fill-color:#000000;" fill="#000000" stroke="#000000" transform="matrix(1.0 0.0 0.0 1.0 -10.19 -111.03)"><foreignobject style="--ltx-fo-width:1.47em;--ltx-fo-height:0.68em;--ltx-fo-depth:0em;font-size:10pt;" height="9.46" overflow="visible" transform="matrix(1 0 0 -1 0 9.46)" width="20.37"><span class="ltx_foreignobject_container"><span class="ltx_foreignobject_content"><span id="S2.F2.pic1.3" class="ltx_text ltx_markedasmath">CA</span></span></span></foreignobject></g><g style="--ltx-stroke-color:#000000;--ltx-fill-color:#000000;--ltx-fg-color:#000000;" color="#000000" fill="#000000" stroke="#000000" stroke-width="1.42264pt"><path style="fill:none" d="M -5.91 -143.7 h 11.81 v 11.81 h -11.81 Z" /></g><g style="--ltx-stroke-color:#000000;--ltx-fill-color:#000000;--ltx-fg-color:#000000;" color="#000000" fill="#000000" stroke="#000000" stroke-width="1.42264pt"><path style="fill:none" d="M -21.65 -143.7 h 11.81 v 11.81 h -11.81 Z" /></g><path style="fill:none" d="M 0 0 L 0 -13.2" /><g transform="matrix(0.0 -1.0 1.0 0.0 0 -13.2)"><path style="stroke:none" d="M 3.32 0 C 1.94 0.28 -0.55 0.83 -2.21 2.08 C -0.83 0.55 -0.83 -0.55 -2.21 -2.08 C -0.55 -0.83 1.94 -0.28 3.32 0 Z" /></g><g style="--ltx-stroke-color:#000000;--ltx-fill-color:#000000;" fill="#000000" stroke="#000000" transform="matrix(1.0 0.0 0.0 1.0 4.89 -12.16)"><foreignobject style="--ltx-fo-width:4.62em;--ltx-fo-height:0.84em;--ltx-fo-depth:0.04em;font-size:10pt;" height="12.18" overflow="visible" transform="matrix(1 0 0 -1 0 11.64)" width="63.91"><span class="ltx_foreignobject_container"><span class="ltx_foreignobject_content"><math id="S2.F2.pic1.m4" class="ltx_Math" alttext="\in{\mathbb{R}}^{F\times T\times K}" display="inline" intent=":literal"><semantics><mrow><mphantom></mphantom><mo>∈</mo><msup><mi>ℝ</mi><mrow><mi>F</mi><mo lspace="0.222em" rspace="0.222em">×</mo><mi>T</mi><mo lspace="0.222em" rspace="0.222em">×</mo><mi>K</mi></mrow></msup></mrow><annotation encoding="application/x-tex">\in{\mathbb{R}}^{F\times T\times K}</annotation></semantics></math></span></span></foreignobject></g><path style="fill:none" d="M 0 -38.6 L 0 -53.92" /><g transform="matrix(0.0 -1.0 1.0 0.0 0 -53.92)"><path style="stroke:none" d="M 3.32 0 C 1.94 0.28 -0.55 0.83 -2.21 2.08 C -0.83 0.55 -0.83 -0.55 -2.21 -2.08 C -0.55 -0.83 1.94 -0.28 3.32 0 Z" /></g><g style="--ltx-stroke-color:#000000;--ltx-fill-color:#000000;" fill="#000000" stroke="#000000" transform="matrix(1.0 0.0 0.0 1.0 4.89 -53.47)"><foreignobject style="--ltx-fo-width:5.13em;--ltx-fo-height:0.84em;--ltx-fo-depth:0.04em;font-size:10pt;" height="12.18" overflow="visible" transform="matrix(1 0 0 -1 0 11.64)" width="70.95"><span class="ltx_foreignobject_container"><span class="ltx_foreignobject_content"><math id="S2.F2.pic1.m5" class="ltx_Math" alttext="\in{\mathbb{R}}^{\frac{F}{2}\times\frac{T}{2}\times K}" display="inline" intent=":literal"><semantics><mrow><mphantom></mphantom><mo>∈</mo><msup><mi>ℝ</mi><mrow><mfrac><mi>F</mi><mn>2</mn></mfrac><mo lspace="0.222em" rspace="0.222em">×</mo><mfrac><mi>T</mi><mn>2</mn></mfrac><mo lspace="0.222em" rspace="0.222em">×</mo><mi>K</mi></mrow></msup></mrow><annotation encoding="application/x-tex">\in{\mathbb{R}}^{\frac{F}{2}\times\frac{T}{2}\times K}</annotation></semantics></math></span></span></foreignobject></g><path style="fill:none" d="M 0 -76.62 L 0 -96.68" /><g style="--ltx-stroke-color:#000000;--ltx-fill-color:#000000;" fill="#000000" stroke="#000000" transform="matrix(1.0 0.0 0.0 1.0 4.89 -92.2)"><foreignobject style="--ltx-fo-width:5.53em;--ltx-fo-height:0.84em;--ltx-fo-depth:0.04em;font-size:10pt;" height="12.18" overflow="visible" transform="matrix(1 0 0 -1 0 11.64)" width="76.47"><span class="ltx_foreignobject_container"><span class="ltx_foreignobject_content"><math id="S2.F2.pic1.m6" class="ltx_Math" alttext="\in{\mathbb{R}}^{\frac{F}{2}\times\frac{T}{2}\times 2K}" display="inline" intent=":literal"><semantics><mrow><mphantom></mphantom><mo>∈</mo><msup><mi>ℝ</mi><mrow><mfrac><mi>F</mi><mn>2</mn></mfrac><mo lspace="0.222em" rspace="0.222em">×</mo><mfrac><mi>T</mi><mn>2</mn></mfrac><mo lspace="0.222em" rspace="0.222em">×</mo><mrow><mn>2</mn><mo lspace="0em" rspace="0em">​</mo><mi>K</mi></mrow></mrow></msup></mrow><annotation encoding="application/x-tex">\in{\mathbb{R}}^{\frac{F}{2}\times\frac{T}{2}\times 2K}</annotation></semantics></math></span></span></foreignobject></g><path style="fill:none" d="M 0 -76.62 L 0 -93.36" /><g transform="matrix(0.0 -1.0 1.0 0.0 0 -93.36)"><path style="stroke:none" d="M 3.32 0 C 1.94 0.28 -0.55 0.83 -2.21 2.08 C -0.83 0.55 -0.83 -0.55 -2.21 -2.08 C -0.55 -0.83 1.94 -0.28 3.32 0 Z" /></g><path style="fill:none" d="M 0 -115.92 L 0 -127.58" /><g transform="matrix(0.0 -1.0 1.0 0.0 0 -127.58)"><path style="stroke:none" d="M 3.32 0 C 1.94 0.28 -0.55 0.83 -2.21 2.08 C -0.83 0.55 -0.83 -0.55 -2.21 -2.08 C -0.55 -0.83 1.94 -0.28 3.32 0 Z" /></g><path style="fill:none" d="M 0 -86.65 L -15.75 -86.65 L -15.75 -127.58" /><g transform="matrix(0.0 -1.0 1.0 0.0 -15.75 -127.58)"><path style="stroke:none" d="M 3.32 0 C 1.94 0.28 -0.55 0.83 -2.21 2.08 C -0.83 0.55 -0.83 -0.55 -2.21 -2.08 C -0.55 -0.83 1.94 -0.28 3.32 0 Z" /></g><path style="fill:none" d="M -7.87 -147.91 L -7.87 -165.35" /><g style="--ltx-stroke-color:#000000;--ltx-fill-color:#000000;" fill="#000000" stroke="#000000" transform="matrix(1.0 0.0 0.0 1.0 3.93 -162.18)"><foreignobject style="--ltx-fo-width:5.53em;--ltx-fo-height:0.84em;--ltx-fo-depth:0.04em;font-size:10pt;" height="12.18" overflow="visible" transform="matrix(1 0 0 -1 0 11.64)" width="76.47"><span class="ltx_foreignobject_container"><span class="ltx_foreignobject_content"><math id="S2.F2.pic1.m7" class="ltx_Math" alttext="\in{\mathbb{R}}^{\frac{F}{2}\times\frac{T}{2}\times 4K}" display="inline" intent=":literal"><semantics><mrow><mphantom></mphantom><mo>∈</mo><msup><mi>ℝ</mi><mrow><mfrac><mi>F</mi><mn>2</mn></mfrac><mo lspace="0.222em" rspace="0.222em">×</mo><mfrac><mi>T</mi><mn>2</mn></mfrac><mo lspace="0.222em" rspace="0.222em">×</mo><mrow><mn>4</mn><mo lspace="0em" rspace="0em">​</mo><mi>K</mi></mrow></mrow></msup></mrow><annotation encoding="application/x-tex">\in{\mathbb{R}}^{\frac{F}{2}\times\frac{T}{2}\times 4K}</annotation></semantics></math></span></span></foreignobject></g><path style="fill:none" d="M -7.87 -143.98 L -7.87 -162.03" /><g transform="matrix(0.0 -1.0 1.0 0.0 -7.87 -162.03)"><path style="stroke:none" d="M 3.32 0 C 1.94 0.28 -0.55 0.83 -2.21 2.08 C -0.83 0.55 -0.83 -0.55 -2.21 -2.08 C -0.55 -0.83 1.94 -0.28 3.32 0 Z" /></g><path style="fill:none" d="M 138.21 -183.26 h 85.79 v 21.52 h -85.79 Z" /><g style="--ltx-stroke-color:#000000;--ltx-fill-color:#000000;" fill="#000000" stroke="#000000" transform="matrix(1.0 0.0 0.0 1.0 142.82 -175.96)"><foreignobject style="--ltx-fo-width:5.53em;--ltx-fo-height:0.69em;--ltx-fo-depth:0.19em;font-size:10pt;" height="12.3" overflow="visible" transform="matrix(1 0 0 -1 0 9.61)" width="76.57"><span class="ltx_foreignobject_container"><span class="ltx_foreignobject_content"><span id="S2.F2.pic1.4" class="ltx_text ltx_markedasmath">Up-sampling</span></span></span></foreignobject></g><path style="fill:none" d="M 160.73 -142.47 h 40.74 v 18.68 h -40.74 Z" /><g style="--ltx-stroke-color:#000000;--ltx-fill-color:#000000;" fill="#000000" stroke="#000000" transform="matrix(1.0 0.0 0.0 1.0 165.34 -137.86)"><foreignobject style="--ltx-fo-width:2.28em;--ltx-fo-height:0.68em;--ltx-fo-depth:0em;font-size:10pt;" height="9.46" overflow="visible" transform="matrix(1 0 0 -1 0 9.46)" width="31.52"><span class="ltx_foreignobject_container"><span class="ltx_foreignobject_content"><span id="S2.F2.pic1.5" class="ltx_text ltx_markedasmath">Conv</span></span></span></foreignobject></g><g style="--ltx-stroke-color:#000000;--ltx-fill-color:#000000;--ltx-fg-color:#000000;" color="#000000" fill="#000000" stroke="#000000" stroke-width="1.42264pt"><path style="fill:none" d="M 175.2 -99.67 h 11.81 v 11.81 h -11.81 Z" /></g><g style="--ltx-stroke-color:#000000;--ltx-fill-color:#000000;--ltx-fg-color:#000000;" color="#000000" fill="#000000" stroke="#000000" stroke-width="1.42264pt"><path style="fill:none" d="M 159.45 -99.67 h 11.81 v 11.81 h -11.81 Z" /></g><path style="fill:none" d="M 132.35 -63.81 h 81.75 v 18.83 h -81.75 Z" /><g style="--ltx-stroke-color:#000000;--ltx-fill-color:#000000;" fill="#000000" stroke="#000000" transform="matrix(1.0 0.0 0.0 1.0 136.96 -59.2)"><foreignobject style="--ltx-fo-width:5.24em;--ltx-fo-height:0.69em;--ltx-fo-depth:0em;font-size:10pt;" height="9.61" overflow="visible" transform="matrix(1 0 0 -1 0 9.61)" width="72.53"><span class="ltx_foreignobject_container"><span class="ltx_foreignobject_content"><span id="S2.F2.pic1.6" class="ltx_text ltx_markedasmath">Dense-block</span></span></span></foreignobject></g><path style="fill:none" d="M 158.43 -24.36 h 29.59 v 18.68 h -29.59 Z" /><g style="--ltx-stroke-color:#000000;--ltx-fill-color:#000000;" fill="#000000" stroke="#000000" transform="matrix(1.0 0.0 0.0 1.0 163.04 -19.75)"><foreignobject style="--ltx-fo-width:1.47em;--ltx-fo-height:0.68em;--ltx-fo-depth:0em;font-size:10pt;" height="9.46" overflow="visible" transform="matrix(1 0 0 -1 0 9.46)" width="20.37"><span class="ltx_foreignobject_container"><span class="ltx_foreignobject_content"><span id="S2.F2.pic1.7" class="ltx_text ltx_markedasmath">CA</span></span></span></foreignobject></g><g style="--ltx-stroke-color:#000000;--ltx-fill-color:#000000;--ltx-fg-color:#000000;" color="#000000" fill="#000000" stroke="#000000" stroke-width="1.42264pt"><path style="fill:none" d="M 167.32 10.57 h 11.81 v 11.81 h -11.81 Z" /></g><g style="--ltx-stroke-color:#000000;--ltx-fill-color:#000000;--ltx-fg-color:#000000;" color="#000000" fill="#000000" stroke="#000000" stroke-width="1.42264pt"><path style="fill:none" d="M 151.57 10.57 h 11.81 v 11.81 h -11.81 Z" /></g><path style="fill:none" d="M 181.1 -200.06 L 181.1 -186.86" /><g transform="matrix(0.0 1.0 -1.0 0.0 181.1 -186.86)"><path style="stroke:none" d="M 3.32 0 C 1.94 0.28 -0.55 0.83 -2.21 2.08 C -0.83 0.55 -0.83 -0.55 -2.21 -2.08 C -0.55 -0.83 1.94 -0.28 3.32 0 Z" /></g><g style="--ltx-stroke-color:#000000;--ltx-fill-color:#000000;" fill="#000000" stroke="#000000" transform="matrix(1.0 0.0 0.0 1.0 185.99 -199)"><foreignobject style="--ltx-fo-width:5.53em;--ltx-fo-height:0.84em;--ltx-fo-depth:0.04em;font-size:10pt;" height="12.18" overflow="visible" transform="matrix(1 0 0 -1 0 11.64)" width="76.47"><span class="ltx_foreignobject_container"><span class="ltx_foreignobject_content"><math id="S2.F2.pic1.m12" class="ltx_Math" alttext="\in{\mathbb{R}}^{\frac{F}{2}\times\frac{T}{2}\times 4K}" display="inline" intent=":literal"><semantics><mrow><mphantom></mphantom><mo>∈</mo><msup><mi>ℝ</mi><mrow><mfrac><mi>F</mi><mn>2</mn></mfrac><mo lspace="0.222em" rspace="0.222em">×</mo><mfrac><mi>T</mi><mn>2</mn></mfrac><mo lspace="0.222em" rspace="0.222em">×</mo><mrow><mn>4</mn><mo lspace="0em" rspace="0em">​</mo><mi>K</mi></mrow></mrow></msup></mrow><annotation encoding="application/x-tex">\in{\mathbb{R}}^{\frac{F}{2}\times\frac{T}{2}\times 4K}</annotation></semantics></math></span></span></foreignobject></g><path style="fill:none" d="M 181.1 -161.46 L 181.1 -146.07" /><g transform="matrix(0.0 1.0 -1.0 0.0 181.1 -146.07)"><path style="stroke:none" d="M 3.32 0 C 1.94 0.28 -0.55 0.83 -2.21 2.08 C -0.83 0.55 -0.83 -0.55 -2.21 -2.08 C -0.55 -0.83 1.94 -0.28 3.32 0 Z" /></g><g style="--ltx-stroke-color:#000000;--ltx-fill-color:#000000;" fill="#000000" stroke="#000000" transform="matrix(1.0 0.0 0.0 1.0 185.99 -159.53)"><foreignobject style="--ltx-fo-width:5.02em;--ltx-fo-height:0.84em;--ltx-fo-depth:0.04em;font-size:10pt;" height="12.18" overflow="visible" transform="matrix(1 0 0 -1 0 11.64)" width="69.42"><span class="ltx_foreignobject_container"><span class="ltx_foreignobject_content"><math id="S2.F2.pic1.m13" class="ltx_Math" alttext="\in{\mathbb{R}}^{F\times T\times 4K}" display="inline" intent=":literal"><semantics><mrow><mphantom></mphantom><mo>∈</mo><msup><mi>ℝ</mi><mrow><mi>F</mi><mo lspace="0.222em" rspace="0.222em">×</mo><mi>T</mi><mo lspace="0.222em" rspace="0.222em">×</mo><mrow><mn>4</mn><mo lspace="0em" rspace="0em">​</mo><mi>K</mi></mrow></mrow></msup></mrow><annotation encoding="application/x-tex">\in{\mathbb{R}}^{F\times T\times 4K}</annotation></semantics></math></span></span></foreignobject></g><path style="fill:none" d="M 181.1 -123.52 L 181.1 -103.97" /><g transform="matrix(0.0 1.0 -1.0 0.0 181.1 -103.97)"><path style="stroke:none" d="M 3.32 0 C 1.94 0.28 -0.55 0.83 -2.21 2.08 C -0.83 0.55 -0.83 -0.55 -2.21 -2.08 C -0.55 -0.83 1.94 -0.28 3.32 0 Z" /></g><g style="--ltx-stroke-color:#000000;--ltx-fill-color:#000000;" fill="#000000" stroke="#000000" transform="matrix(1.0 0.0 0.0 1.0 185.99 -119.92)"><foreignobject style="--ltx-fo-width:4.62em;--ltx-fo-height:0.84em;--ltx-fo-depth:0.04em;font-size:10pt;" height="12.18" overflow="visible" transform="matrix(1 0 0 -1 0 11.64)" width="63.91"><span class="ltx_foreignobject_container"><span class="ltx_foreignobject_content"><math id="S2.F2.pic1.m14" class="ltx_Math" alttext="\in{\mathbb{R}}^{F\times T\times K}" display="inline" intent=":literal"><semantics><mrow><mphantom></mphantom><mo>∈</mo><msup><mi>ℝ</mi><mrow><mi>F</mi><mo lspace="0.222em" rspace="0.222em">×</mo><mi>T</mi><mo lspace="0.222em" rspace="0.222em">×</mo><mi>K</mi></mrow></msup></mrow><annotation encoding="application/x-tex">\in{\mathbb{R}}^{F\times T\times K}</annotation></semantics></math></span></span></foreignobject></g><path style="fill:none" d="M 173.23 -87.58 L 173.23 -67.41" /><g transform="matrix(0.0 1.0 -1.0 0.0 173.23 -67.41)"><path style="stroke:none" d="M 3.32 0 C 1.94 0.28 -0.55 0.83 -2.21 2.08 C -0.83 0.55 -0.83 -0.55 -2.21 -2.08 C -0.55 -0.83 1.94 -0.28 3.32 0 Z" /></g><g style="--ltx-stroke-color:#000000;--ltx-fill-color:#000000;" fill="#000000" stroke="#000000" transform="matrix(1.0 0.0 0.0 1.0 178.12 -83.73)"><foreignobject style="--ltx-fo-width:5.02em;--ltx-fo-height:0.84em;--ltx-fo-depth:0.04em;font-size:10pt;" height="12.18" overflow="visible" transform="matrix(1 0 0 -1 0 11.64)" width="69.42"><span class="ltx_foreignobject_container"><span class="ltx_foreignobject_content"><math id="S2.F2.pic1.m15" class="ltx_Math" alttext="\in{\mathbb{R}}^{F\times T\times 2K}" display="inline" intent=":literal"><semantics><mrow><mphantom></mphantom><mo>∈</mo><msup><mi>ℝ</mi><mrow><mi>F</mi><mo lspace="0.222em" rspace="0.222em">×</mo><mi>T</mi><mo lspace="0.222em" rspace="0.222em">×</mo><mrow><mn>2</mn><mo lspace="0em" rspace="0em">​</mo><mi>K</mi></mrow></mrow></msup></mrow><annotation encoding="application/x-tex">\in{\mathbb{R}}^{F\times T\times 2K}</annotation></semantics></math></span></span></foreignobject></g><path style="fill:none" d="M 173.23 -44.7 L 173.23 -24.64" /><g style="--ltx-stroke-color:#000000;--ltx-fill-color:#000000;" fill="#000000" stroke="#000000" transform="matrix(1.0 0.0 0.0 1.0 178.12 -40.22)"><foreignobject style="--ltx-fo-width:4.62em;--ltx-fo-height:0.84em;--ltx-fo-depth:0.04em;font-size:10pt;" height="12.18" overflow="visible" transform="matrix(1 0 0 -1 0 11.64)" width="63.91"><span class="ltx_foreignobject_container"><span class="ltx_foreignobject_content"><math id="S2.F2.pic1.m16" class="ltx_Math" alttext="\in{\mathbb{R}}^{F\times T\times K}" display="inline" intent=":literal"><semantics><mrow><mphantom></mphantom><mo>∈</mo><msup><mi>ℝ</mi><mrow><mi>F</mi><mo lspace="0.222em" rspace="0.222em">×</mo><mi>T</mi><mo lspace="0.222em" rspace="0.222em">×</mo><mi>K</mi></mrow></msup></mrow><annotation encoding="application/x-tex">\in{\mathbb{R}}^{F\times T\times K}</annotation></semantics></math></span></span></foreignobject></g><path style="fill:none" d="M 125.98 -93.76 L 155.14 -93.76" /><g transform="matrix(1.0 0.0 0.0 1.0 155.14 -93.76)"><path style="stroke:none" d="M 3.32 0 C 1.94 0.28 -0.55 0.83 -2.21 2.08 C -0.83 0.55 -0.83 -0.55 -2.21 -2.08 C -0.55 -0.83 1.94 -0.28 3.32 0 Z" /></g><g style="--ltx-stroke-color:#000000;--ltx-fill-color:#000000;" fill="#000000" stroke="#000000" transform="matrix(1.0 0.0 0.0 1.0 93.67 -97.22)"><foreignobject style="--ltx-fo-width:1.76em;--ltx-fo-height:0.69em;--ltx-fo-depth:0.19em;font-size:10pt;" height="12.3" overflow="visible" transform="matrix(1 0 0 -1 0 9.61)" width="24.29"><span class="ltx_foreignobject_container"><span class="ltx_foreignobject_content"><span id="S2.F2.pic1.8" class="ltx_text">skip</span></span></span></foreignobject></g><path style="fill:none" d="M 173.23 -5.41 L 173.23 6.26" /><g transform="matrix(0.0 1.0 -1.0 0.0 173.23 6.26)"><path style="stroke:none" d="M 3.32 0 C 1.94 0.28 -0.55 0.83 -2.21 2.08 C -0.83 0.55 -0.83 -0.55 -2.21 -2.08 C -0.55 -0.83 1.94 -0.28 3.32 0 Z" /></g><path style="fill:none" d="M 173.23 -34.67 L 157.48 -34.67 L 157.48 6.26" /><g transform="matrix(0.0 1.0 -1.0 0.0 157.48 6.26)"><path style="stroke:none" d="M 3.32 0 C 1.94 0.28 -0.55 0.83 -2.21 2.08 C -0.83 0.55 -0.83 -0.55 -2.21 -2.08 C -0.55 -0.83 1.94 -0.28 3.32 0 Z" /></g><path style="fill:none" d="M 165.35 26.59 L 165.35 44.03" /><g style="--ltx-stroke-color:#000000;--ltx-fill-color:#000000;" fill="#000000" stroke="#000000" transform="matrix(1.0 0.0 0.0 1.0 177.16 29.76)"><foreignobject style="--ltx-fo-width:5.02em;--ltx-fo-height:0.84em;--ltx-fo-depth:0.04em;font-size:10pt;" height="12.18" overflow="visible" transform="matrix(1 0 0 -1 0 11.64)" width="69.42"><span class="ltx_foreignobject_container"><span class="ltx_foreignobject_content"><math id="S2.F2.pic1.m17" class="ltx_Math" alttext="\in{\mathbb{R}}^{F\times T\times 2K}" display="inline" intent=":literal"><semantics><mrow><mphantom></mphantom><mo>∈</mo><msup><mi>ℝ</mi><mrow><mi>F</mi><mo lspace="0.222em" rspace="0.222em">×</mo><mi>T</mi><mo lspace="0.222em" rspace="0.222em">×</mo><mrow><mn>2</mn><mo lspace="0em" rspace="0em">​</mo><mi>K</mi></mrow></mrow></msup></mrow><annotation encoding="application/x-tex">\in{\mathbb{R}}^{F\times T\times 2K}</annotation></semantics></math></span></span></foreignobject></g><path style="fill:none" d="M 165.35 22.66 L 165.35 40.71" /><g transform="matrix(0.0 1.0 -1.0 0.0 165.35 40.71)"><path style="stroke:none" d="M 3.32 0 C 1.94 0.28 -0.55 0.83 -2.21 2.08 C -0.83 0.55 -0.83 -0.55 -2.21 -2.08 C -0.55 -0.83 1.94 -0.28 3.32 0 Z" /></g><g style="--ltx-stroke-color:#000000;--ltx-fill-color:#000000;" fill="#000000" stroke="#000000" transform="matrix(1.0 0.0 0.0 1.0 126.53 52.38)"><foreignobject style="--ltx-fo-width:5.61em;--ltx-fo-height:0.75em;--ltx-fo-depth:0.25em;font-size:10pt;" height="13.84" overflow="visible" transform="matrix(1 0 0 -1 0 10.38)" width="77.64"><span class="ltx_foreignobject_container"><span class="ltx_foreignobject_content"><span id="S2.F2.pic1.9" class="ltx_text">(b) Up-block</span></span></span></foreignobject></g><g style="--ltx-stroke-color:#000000;--ltx-fill-color:#000000;" fill="#000000" stroke="#000000" transform="matrix(1.0 0.0 0.0 1.0 -54.67 52.38)"><foreignobject style="--ltx-fo-width:6.79em;--ltx-fo-height:0.75em;--ltx-fo-depth:0.25em;font-size:10pt;" height="13.84" overflow="visible" transform="matrix(1 0 0 -1 0 10.38)" width="93.98"><span class="ltx_foreignobject_container"><span class="ltx_foreignobject_content"><span id="S2.F2.pic1.10" class="ltx_text">(a) Down-block</span></span></span></foreignobject></g></g></svg>